<?xml version="1.0" encoding="UTF-8"?>
<svg id="Layer_1" xmlns="http://www.w3.org/2000/svg" version="1.1" viewBox="0 0 632.18 923.42">
  <!-- Generator: Adobe Illustrator 29.6.0, SVG Export Plug-In . SVG Version: 2.1.1 Build 207)  -->
  <defs>
    <style>
      .st0 {
        fill: #2c2c2d;
      }

      .st1 {
        fill: #7c7c7c;
      }
      .st2 {
        fill: #ea9b22;
      }

      .st3 {
        fill: #2c2c2c;
      }

      .st4 {
        fill: #252424;
      }

      .st5 {
        fill: #242424;
      }

      .st6 {
        fill: #f7f7f7;
      }

      .st7 {
        fill: #252525;
      }

      .st8 {
        fill: #9ac957;
      }

      .st9 {
        fill: #fdfdfd;
      }
    </style>
  </defs>
  <path d="M202.44,43.48c1.35-.16,10.78-3.04,10.78-3.83-7.1-6.32-12.61-14.84-11.82-24.72,10.61,1.34,21.63,2.06,32.37,1.39,21.52-1.36,40.84-11.55,62.07-14.52,38.21-5.33,71.36.98,103.93,21.2,6.98,4.33,13.26,9.74,20.03,14.08,13.66,8.75,31.87,13.57,31.6,33.91-.12,8.81-5.25,13.32-6.29,18.82-.79,4.21.95,10.43.69,15.32-.14,2.54-1.59,6.95-1.41,9,.11,1.26,4.16,6.59,5.06,8.87,2.62,6.59,7.76,24,8.19,30.8.74,11.8-2.05,24.92-6.87,35.66-1.25,2.78-5.66,9.01-6.11,10.66-.39,1.44.49,5.24.9,6.83,3.08,11.73,14.46,18.01,24.58,22.78.39,1.73-5.24,4.11-3.47,5.54.84.68,8.08,4.92,8.83,5.09,3.3.74,9.03.36,12.98.94,50.54,7.49,78.07,37.37,82.6,87.98.25,2.78-.48,6.3.18,8.87.42,1.64,9.59,11.97,11.53,14.92,3.5,5.32,9.77,15.85,9.19,22.15-.18,1.98-1.45,3.73-1.37,5.51.13,2.93,3.21,10.8,3.92,14.9.9,5.18,1.23,10.43,1.75,15.65,21.89,20.32,32.43,49.31,33.97,78.82,1.62,31.05,2.51,67.13,1.43,98.19-.35,10.11-2,38.94-6.68,46.93-3.84,6.56-30.76,24.8-38.34,25.72-8.63,1.05-14.49-2.54-22.29-3.32-3.99-.4-8.41.4-12.28-.25-9.17-1.55-20.8-14.66-24.52-22.82-.57-1.26-1.59-5.77-1.91-6.09-.44-.45-8.5-4.01-10.99-6.07-14.66-12.08-6.85-20.15-2.58-34.63,2.63-8.91,1.74-15.11,8.5-22.83,2.83-3.23,9.81-7.16,11.53-10.05.62-1.03.87-1.35.54-2.64-.64-2.49-6.97-11.05-8.95-13.39-6.19-7.31-14.09-13.54-19.76-21.32-12.28-16.85-15.81-41.92-10.86-61.91-18.17,21.49-14.15,53.97-13.93,80.4-.54,2.85-4.78,4.38-4.64,6.84,2.79,8.73,3.24,18.87,5.84,27.5,1.48,4.9,4.58,10.26,6.3,15.28,9.44,27.51,16.1,53.84,11.9,83.26-1.17,8.17-4.6,16.89-5.37,24.57-.48,4.78.25,9.75-.09,14.53-.64,8.8-3.07,19.76-4.17,29.25-1.92,16.51-4.9,33.55-5.56,50.14-.49,12.35,2.43,19.91,4.11,31.43.68,4.7-1.76,3.77,3.21,7.89,3.33,2.76,12.01,7.61,16.18,8.19,6.63.91,11.87-2.54,18-3.22,11.3-1.26,25.63,1.28,32.98,10.74,1.62,2.08,2.33,4.82,3.48,6.27.97,1.22,3.76,2.38,5.26,3.79,10.1,9.51,15.81,24.54,12.55,38.34-.37,1.56-2.26,7.11-3.63,7.56-3.28,1.05-16.07-10.44-21.83-8.69-1.16.35-2.42,1.78-3.97,2.34-9.74,3.52-18.04,2.28-28.04.85,1.05,5.01-3.71,19.71-8.88,20.77-2.25.46-14.34-8.58-18.96-9.35-2.73-.46-9.72,2.48-13.59,2.56-20.28.41-35.7-15.65-55.2-19.35-15.08-2.86-33.71-1.97-47.87-8.53-10.63-4.92-7.25-21.8-4.3-30.8.54-1.66,3.83-8.1,3.79-8.57-.05-.57-1.89-1.81-2.44-2.93-2.55-5.17.97-13.09,1.22-18.65,1-21.82-11.18-39.45-12.55-59.84-1.28-19.04,3.22-37.07,11.02-54.23-13-17.3-20.15-37.8-26.66-58.25-8.53,19.07-18.04,38.63-31.7,54.64-1.82,2.13-8.65,7.84-9.36,9.44-.75,1.68-3.91,14.67-4.38,17.2-2.56,13.64-2.3,24.99-7.11,38.84-7,20.16-25.88,38.47-27.77,59.26-.35,3.83.66,10.62-.23,13.69-.63,2.17-4.54,3.44-5.47,4.97-1.87,3.05,1.65,11.87.88,15.92,10.04,9.44,11.6,25.5,5.11,37.41-1.67,3.07-4.85,5.34-6.24,7.69-1.28,2.17-2.02,5.66-3.52,8.32-2.05,3.64-8.28,11.27-13.12,9.65-1.27-.42-6.74-10.14-9.53-11.39-1.69-.75-3.82-.15-5.72-.55-8.16-1.71-14.68-4.74-20.99-10.21-5.7,5.31-14,8.7-21.76,9.61-1.84.22-5.95-.46-6.57-.23-2.9,1.09-9.2,11.17-12.11,12.89-5.53,3.26-12.72-9.32-14.32-13.6-1.44-3.83-1.67-7.83-3.21-11.56-9.1,1.72-18.86,6.13-28.27,4.75-2.41-.36-6.16-2.71-7.67-2.48-4.58.69-19.47,11.65-21.39,10.71-2.18-1.07-4.86-7.44-5.55-9.83-3.47-12.01-.97-26.88,7.6-36.18,1.59-1.72,4.62-3.46,5.61-4.84,1.44-2,1.59-5.11,3.46-7.68,6.03-8.29,19.57-13.26,29.58-12.87,2.86.11,9.03,2.21,11,1.94,2.5-.35,14.34-8.12,14.29-10.52-.02-1.31-1.66-4.45-1.88-6.48-.92-8.49,3.31-12.18,5.69-19.23,4.64-13.77,2.45-33.56,3.29-48.23.38-6.61,1.87-13.3,2.77-19.85-14.66,5.58-31.08,5.99-45.73.12-2.51-1.01-15.06-7.49-15.52-9.58-.34-1.56,8.49-5.61,9.03-7.96h-12.88c-2.02,0-11.04-3.05-13.35-4.05-11.05-4.81-23.69-17.91-27.37-29.35,45.2-6.99,86.98-29.03,121.14-58.84,5.31-4.63,11.8-10.38,16.36-15.67.84-.98,7.17-9.14,6.6-9.76-7.52,6.14-21.69,15.76-31.56,15.74-14.62-.02-44.8-18.36-56.8-27.29-6.12-4.55-11.43-10.34-17.24-14.79-9.57-7.33-23.37-13.22-33.87-20.44-20.33-13.98-39.39-32.18-50.96-54.18-2.22,11.19-9.89-4.54-11.61-8.58-6.47-15.24-6.1-33.44-1.61-49.21,1.32-4.64,5.09-11.25,5.75-15.14.75-4.44-.16-9.84.17-14.45.5-6.92,2.28-15.6,4.16-22.3,1.44-5.13,7.05-16.09,7.54-19.64.25-1.78-1.25-3.44-1.27-5.4-.08-6,8.5-17.69,12.26-22.57,2.65-3.43,15.02-15.82,15.77-17.65.97-2.4.87-6.75,1.54-9.6,11.56-48.97,40.6-77.21,91.24-82.82,3.05-.34,6.58.48,9.56-.19,4.87-1.1,13.13-7.48,17.24-10.61-1.75.36-20.27-3.76-18.8-5.9,9.85-6.15,17.43-18.66,21.91-29.28,13.29-31.5,16.23-69.3,29.98-102.3,2.78-6.66,6.32-13.26,9.38-19.51-10.28-2.91-21.09-11.12-22.98-22.29,4.98-.42,10.8.58,15.67,0Z"/>
  <path class="st5" d="M492.43,412.84c-2.15,22.3-16.73,37.73-21.94,57.44-2.69,10.17-3.85,23.18-4.55,33.74-.21,3.15.72,10.09-.08,12.45s-13.2,3.97-15.9,4.65c.21,1.28,3.57.75,4.52.68,3.74-.26,7.85-1.18,11.49-2.08-.66,2.34,2.14,12.43.97,13.3-14.88,6.21-31.27,8.62-47.27,10.37-42.74,4.67-88.29,4.14-130.67-3-16.24-2.74-32.81-6.16-47.95-12.68-1.06-.97,1.95-9.85,1.43-12.17,7.16,2.52,14.55,4.07,22.01,5.48l5.83-.6-27.76-7.74c.23-12.92-1.95-25.79-5.3-38.22-1.09-4.04-3.82-14.04-5.92-17.05-1.98-2.83-6.07-6.21-8.34-9.07-16.74-21.1-17.6-41.64-10.46-67.17,10.46,5.67,20.73,11.24,32.18,14.81,34.88,10.87,68.77,5.25,103.32-3.58l12.79-4.26-39.34,3.47c-40.84,2.8-87.01-9.32-108.91-46.4.14-7.35,1.18-14.8.68-22.2-.39-5.73-2.25-11.33-2.82-17.03-1.84-.15-1.15-.07-1.36,1.06-2.63,14.05-3.67,27.44-12.96,39.27-.84,1.07-5.79,6.32-6.58,6.71-1.04.52-11.1-5.1-13.54-5.97-4.75-1.7-9.97-2.87-14.98-3.46l8.68,6.28c4.99,4.6,9.99,8.98,14.28,14.27,2.85,3.52,7.32,7.88,6.92,12.43-.21,2.42-6.77,21.3-7.94,21.31-21.92-23.48-52.55-40.05-84.45-45.04-20.57-3.22-37.76-2.39-58.11,1.37-.91.17-1.36,1.31-1.22-.52,4.42-4.84,8.39-10.22,12.87-14.99,1.55-1.65,9.46-8.39,9.74-9.06,1.03-2.46.07-7.15.37-10.07,6.36-60.94,75.82-93.89,127.4-61.63-3.92-9.95-13.59-17.18-23.66-20.2l17.76-13.21c1.59-.26.98.53.88,1.57-.44,4.31-2.2,9.5-3.32,13.74,13.65-1.01,28.54-3.13,40.37-10.44,10.5,23.63,37.3,41.76,63.37,41.77.34-.25-4.49-5.93-3.14-7.65,4.51,3.59,9.49,6.56,14.72,8.95,2.82,1.29,13.52,5.67,15.91,5.67h14.27c.09-2.16-2.88-4.1-1.74-6.26,23.28,13.23,49.93,19.67,74.4,30.52,7.81-6.91,11.69-17.19,14.38-27.04l11.46,9.75c5.58-6.6,9.08-14.45,10.91-22.88,10.33,1.11,20.06.97,29.84-2.89.68-.89-9.92-12.94-9.04-16.01,5.67,2.04,12.26,6.74,17.94,8.17s12.49,1.35,18.4,2.48c43.1,8.29,70.8,44.29,65.44,88.42,8.06,8.53,16.95,17.31,21.44,28.33-16.04,1.53-31.64,5.34-46.42,11.72-1.85.8-14.24,7.63-14.85,7.08,15.54-28.64,18.25-64.6-.41-92.54l-7.25-9.8c8.34,27.98,16.88,62.72-4.2,87.35-20.5,23.96-51.85,13.67-79.35,13.6l18.65,6.06c15.02,4.04,30.43,7.24,46.1,6.46-.27,3.94.37,8.3,0,12.18Z"/>
  <path class="st7" d="M268.93,256.53c-19.57-6.21-35.36-23.06-39.69-43.16-.5-.54-8.1,5.02-9.28,5.69-7.81,4.44-16.62,8.15-25.53,9.62,2.86-10.53,5.62-21.04,6.26-32.02-8.85,8.1-19.95,16.99-32.71,15.67,10.33-13.72,15.34-29.84,19.99-46.15,6.87-24.08,11.64-48.56,20.56-72.04,4.94-12.98,10.16-26.36,20.01-36.38-7.3-1.09-14.6-2.01-21.58-4.53l25.76-12.53c.63-.82-9.21-7.3-10.11-8.33l-4.51-5.58c30.76,3.34,58.94-13.64,89.43-15.35,35.79-2.01,62.17,5.69,92.23,24.11,9.61,5.89,30.1,17.59,35.59,26.38,1.67,2.67,2.84,5.54,4.15,8.38-15.17-.95-25.97,9.65-37.95,17.06-2.04.02-5.83-7.95-8.68-8.37,1.1,5.14,1.13,10.31-.79,15.23-4.33-.1-8.48,1.23-12.44,2.87-.51-3.08,1.13-5.82,1.38-8.71.65-7.43-2.71-12.33-8-17.05.68,5.09.55,9.24-1.2,14.11-3.59,10-6.23,9.84-15.34,6.61-23.05-8.18-58.45-42.85-83.15-34.08-4.61,1.64-11.35,6.83-12.73,11.64-.6,2.1,3.46.38,4.51.33,7.17-.32,13.2.88,19.83,3.48-16.07,17.7-7.64,51.56,13.45,61.39,18.05,8.41,41.37,6.01,52.12-12.19.85-1.44,3.63-8.26,4.02-8.52.32-.22,6.35.94,7.7.4.82.73-8.92,13.99-10.08,15.32-4.78,5.46-13.56,12.88-20.95,13.86-14.43,1.91-25.02-8.62-40.86-1.87-12.17,5.18-15.85,23.8-9,34.44s44.98,27.37,58.09,31.03c8.27,2.31,18.05,4.35,26.67,4.02,17.62-.67,33.73-9.7,49.36-16.78,3.22,1.96,8.53,18.61,9.4,19.24,2.1,1.51,9.67-6.02,10.48-5.27,1.72,10.05,8.92,19.55,18.11,23.68.29,1.57-.08,1.11-.88,1.55-3.61,1.99-9.01,2.02-13.04,1.93l11.83,18.09c-8.27-.45-16.74-1.48-24.36-4.87,1.83,6.9-.44,13.55-2.1,20.19l-20.19-12.53v10.79c0,2.02-2.9,10.49-3.84,12.87-.5,1.26-4.24,8.95-4.85,9-30.39-12.72-63.28-20.89-87.05-45.19-1.58-.29-.95.69-1.04,1.72-.51,6.54,2.37,13.32,2.44,19.85-15.95-6.01-30.2-16.59-39-31.32-.47,1.51-2.43,6.18-2.43,7.31v14.97Z"/>
  <path class="st5" d="M255.7,833.72c-9.88-.49-18.06-6.22-26.97-9.58-18.78-7.1-38.26-8.44-57.97-5.04.2-5.53,2.78-10.56,3.97-15.87,4.88-21.73.09-43.46,5.97-65.74,2.96-11.23,8.3-19.89,15.13-29.09.62-.43,5.13,8.27,6.95,8.35-.93-5.6-1.76-11.34-1.38-17.05s2.82-11.98,3.4-17.49c.98-9.23-.17-19.48.77-29.17,3.03-30.98,15.17-50.19,27.27-77.17,4.68-10.43,7.17-21.8,11.71-32.19,1.12-.7,10.04,2.58,12.24,3.13,37.29,9.29,75.33,12.24,113.79,11.88-.89,19.73-3.1,39.56-9.12,58.42-15.39.69-30.72-1.06-45.88-3.4.16,1.04,1.31,1.3,2.07,1.75,7.42,4.4,15.7,9.09,23.69,12.17-9.56,27.01-22.78,53.62-43.24,74.07-5.42,5.42-12.05,11.6-18.72,15.05-.19,1.1.99.75,1.75.72,3.5-.16,7.98-.8,11.46-1.42.73,3.93-2.24,7.14-2.72,10.85-1.84,14.11-1.64,23.63-7.01,37.55-6.53,16.94-27.17,40.01-27.17,57.77v11.49Z"/>
  <path class="st7" d="M138.86,442.31c-.33-.2-3.76-5.2-4.65-6.15-12.95-13.84-27.56-20.65-46.31-23.66,11.83,10.74,26.75,16.16,36.49,29.3,9.61,12.95,13.07,28.78,12.26,44.8-.11.74-8.55.67-9.75-.3-1.56,1.57,9.78,8.86,11.13,9.4,14.34,5.66,25.26-12.64,36.61-14.21,5.82-.8,22.67,3.82,28.15,6.55,5.08,2.53,7.46,9.02,8.34,14.28-1.73,1.62-19.49-4.85-22.47-4.07-1.74.46-9.68,12.76-8.55,14.52.86,1.34,21.9,12.04,24.75,8l-9.03-6.97c18.29-10.03,44.04,12.82,23.99,28.88-9.86,6.76-21.25,10.89-31.66,16.73.32,1.04,3.6,1.3,4.53,1.38,10.73.81,20.61-2.89,30.27-6.95.11,8.43-2.67,10.64-8.83,15.19-9.59,7.08-21.74,11.58-32.94,15.46.6,1.27,3.44,2.39,4.68,2.62,7.69,1.41,15.27-1.71,22.11-4.72.49.42-.49,2.32-.75,2.73-4.18,6.39-24.64,19.42-32.12,20.1-8.65.78-34.41-14.14-42.18-19.47-9.19-6.3-17.2-15.1-25.59-21.06-5.4-3.84-14.48-7.38-20.78-11.24-28.92-17.72-61.5-45.58-66.21-81.05-2.89,3.07-4.65,7.89-6.27,11.83-1,.17-.97-1.23-1.17-1.94-3.26-11.66-1.26-29,2.22-40.52,1.37-4.51,5.82-11.95,6.46-15.15.41-2.07-.77-10.34-.57-13.78.52-9.18,3.37-20.37,6.47-29.04,1.06-2.96,7.48-18.38,9.37-19.18,39.96-8.94,86.77-.97,119.19,24.64,3.14,2.48,16.63,14.58,17.35,17.52,1.34,5.5-11.91,22.02-16.22,25.94-2.76,2.51-15,11.58-18.34,9.6Z"/>
  <path class="st5" d="M462.14,816.32c-11.28,1.19-24.16,7.12-35.15,10.11-13.46,3.66-27.12,5.7-41.09,3.82,1.75-13.06,1.82-24.25-1.59-37.06-1.92-7.22-5.44-13.9-7.47-21.07-5.5-19.36-3.23-40.95,5.94-58.85,6.1,3.4,12.58,8.96,19.82,8.71-21.08-23.32-40.56-53.24-41.81-85.59l8.78-2.33c1.1.19,5.45,18.36,6.4,21.26,2.8,8.59,6.44,16.95,10.51,25l7.07,9.97c-4.46-12.56-10.41-24.56-14.63-37.23-2.17-6.51-3.94-13.17-5.56-19.84,18.23-5.84,35.94-13.96,51.52-25.08-10.71,2.67-21.54,5.23-32.49,6.84-10.03,1.48-20.14,2.02-30.17,2.9l4.31-5.08c8.75-16.47,10.29-36.37,11-54.8,5.61.22,11.15-.1,16.72-.7-.65,12.86-2.09,25.67-4.51,38.32l-4.2,13.9c9.33-9.16,11.92-22.75,13.49-35.25.36-2.87.62-15.91,1.65-16.8s24.02-2.52,27.93-3.05c11.96-1.64,23.79-4.43,35.6-6.88,2.72,7.74,2.81,16.44,5.01,24.25,1.95,6.92,6.14,14.91,8.59,22.05,9.71,28.29,14.38,53.31,7.87,83.09-.91,4.18-3.15,9.01-3.63,13.08-.57,4.87.29,10.35-.05,15.27-.8,11.67-6,25.09-13.25,34.09,1.79,1.58,8.76-3.53,9.04-3.14-2.31,26.55-9.62,53.72-2.08,80.07-4.36.33-9.29-.45-13.58,0Z"/>
  <path class="st5" d="M578.65,381.28c2.64,1.63,6.27,26.02,6.31,30.24l-2.71,21.16c3.05-3.2,5.53-7.69,6.96-11.83,14.52,14.44,25.36,33.49,28.46,54.04,1.97,13.12.93,25.87,1.45,38.94,1.33,33.54,4.71,68.11-.09,101.51-.5,3.47-1.59,11.72-2.85,14.55-1.19,2.67-19.24,14.75-22.85,16.83-5.83,3.37-7.74,4.9-14.91,3.18-3.69-.89,2.15-1.99,3.13-2.44,12.78-5.82,21.7-12.35,18.8-28.18l-4.58,8.29c-8.84,11.88-28.08,13.52-41.02,18.82-6.54-3.13-17.67-12.06-17.38-19.81.21-5.54,8.38-14.12,13.16-16.41,5.86-2.81,2.49,3.79,2.1,5.6-1.19,5.53-1.83,11.49,4.55,13.95.44-8.18,7.26-16.77,16.02-16.71-7.39-6.44-14.71-11.75-18.79-21.24-.56-.69-.97.39-1.29.81-1.43,1.89-2.92,5.47-4.26,6.88-1.9,2.01-7.59,4.32-10.47,6.94-2.43,2.21-7.86,10.55-9.05,11.19-1.31.71-4.58-.98-5.93-1.76-4.69-2.72-7.1-6.43-6.29-11.89,1.26-8.46,8.42-21.08,10.25-30.14,5.75-7.39,14.26-11.7,21.14-17.85,1.11-.99,11.27-10.81,10.07-11.85-2.73-1.07-13.94,4.83-15.21,4.08-2.98-5.73-6.5-11.23-10.57-16.25-4.93-6.09-11.53-11.13-16.35-17.07-12.31-15.17-16.63-36.07-11.83-55.01,7.78,4.87,16.84,7.3,26.02,7.75,2.28,7.98,5.91,16.41,13.31,20.79.48-4.79,2.05-9.48,3.85-13.91,2.73-6.74,9.67-15.53,11.47-21.26.11-.36.19-1.14-.33-1.03-18.96,15.27-47.32,4.69-55.23-17.25l4.69-25.63c16.02-9.92,33.01-19.49,51.29-24.6,3.08-.86,16.99-4.64,18.98-3.42Z"/>
  <path class="st1" d="M311.4,157.67c-9.28-1.46-17.31,3.95-14.61,13.92,1.3,1.24,3.24-4.45,5.12-4.12.6.11,7.66,5.42,10.22,6.53,18.97,8.21,43.04.88,63.59,2.55,6.57.53,24.77,4.59,29.67,8.62.82.68.88.68.02,1.39-16.73,7.47-30.65,15.09-49.78,13.56-16.73-1.34-44.99-13.8-59.33-22.83s-12.76-26.9,5.02-28.67c15.56-1.55,25.85,8.76,42.59.12,16.06-8.28,20.49-23.48,30.57-36.27,14.19-18.03,38.75-5.27,53.15,5.91,26.98,20.97,25.63,57.42,3.88,81.74-8.95-17.92-24.8-27.26-44.07-31.11-19.08-3.81-31.62-.2-49.9.52-10.19.4-20.78-1.17-29.28-6.99l3.14-4.87Z"/>
  <path class="st2" d="M548.13,847.64c-11.43,4.04-12.53,21.94-8.91,31.55.58,1.54,1.89,2.39,1.94,3.97-.81.72-19.85-.28-21.56-1.75-.74-.64-4.47-8.97-6.62-11.48-2.56-2.98-5.77-4.31-8.01-6.61-1.53-1.57-2.67-4.43-4.2-6.25-9.08-10.8-24.39-14.43-36.13-5.52-.83.63-6.46,5.77-5.63,6.55,10.96-2.64,23.64-4.29,32.72,3.84-14.61,3.77-15.41,22.16-10.44,33.76-17.11.12-30.11-12.12-45.96-17.05-15.16-4.71-30.8-3.95-45.83-7.78-3.2-.82-7.15-1.06-7.73-4.8-1.27-8.14,1.44-17.04,5.62-23.92,13.62,1.92,27.88-.29,41.13-3.74,11.43-2.97,35.65-13.56,46.47-9.87,3.09,1.06,12.97,9.75,17.67,12.27,4.03,2.17,13.02,6.42,17.33,6s9.83-3,14.33-3.82c8.02-1.47,17.92-1.75,23.81,4.66Z"/>
  <path class="st2" d="M191.65,858.79c-17.82-20.72-46.85,5.69-43.24,27.78l-20.82,4.24c2.8-9.78,3.4-19.2-3.5-27.48-2.41-2.9-5.35-4.25-8.15-6.43-.43-.34-1.82-.45-.87-1.58.23-.27,5.44-2.82,6.27-3.14,6.94-2.65,14.44-2.34,21.36.21,3.77,1.39,6.96,4.2,10.66,5.7l-2.77-7.62c4.1-1.63,8.24-4.67,11.75-7.42s8.88-9.14,11.54-10.74c5.09-3.06,22.95-2.74,29.17-1.98,13.66,1.66,22.78,6.65,35.06,11.58,5.92,2.38,12.27,1.41,11.32,9.91-10.4-3.32-25.4-2.23-29.23,9.75,15.68-6.88,42.29.27,41.06,20.88l-5.2-8.37c-9.46-9.08-23.74-8.58-28.55,4.9-2.31,6.48-2.52,13.43-2.09,20.17-12.07-4.71-14.8-11.27-17.41-22.98-.17-.77,0-2.25-1.04-2.07-.68,11.79-5.58,23.14-18.45,25.07,1.07-9.42.31-27.92-11.46-30.34-5.34-1.1-10.86.23-15.35,3.17-.31-1.31.73-1.66,1.38-2.44,3.5-4.18,12.21-10.79,17.76-10.79h10.79Z"/>
  <path class="st4" d="M80.25,695.16c.12-1.08,1.03-1.08,1.8-1.32,5.58-1.75,11.93-2.77,17.69-4.59,31.69-10,63.42-28.36,88.44-50.12l9.03-8.71c-2.06,6.87-1.5,17.43-3.67,23.82-.55,1.61-2.63,3.81-3.71,5.34-17.42,24.71-65.39,61.85-96.61,45.23-5.01-2.67-8.26-6.82-12.98-9.66Z"/>
  <path class="st9" d="M227.85,508.57c-6.53-3.6-5.13-8.99-6.92-15-1.41-4.72-4.9-10.44-8.86-13.42-5.88-4.43-30.22-11.12-37.47-10.56-8.42.66-17.13,9.11-24.72,12.52.32-8.75-2.1-17.14-3.4-25.67,13.29-4.43,23.46-14.32,32.63-24.46,6.52,10.65,17.05,21.51,27.36,28.7,2.27,1.58,11.91,6.61,12.64,7.55.94,1.19,3.27,8.11,3.88,10.04,3.09,9.78,4.43,20.07,4.85,30.3Z"/>
  <path class="st4" d="M193.03,669.41c-.08,5.93.06,12.58-.7,18.44-1.37,10.53-4.38,11.04-9.61,18.94-7.56,11.42-7.05,15.27-21.03,20.75-12.27,4.8-25.71,4.57-36.88-2.77,25.48-14.33,49.24-33.07,68.21-55.35Z"/>
  <path class="st8" d="M337.87,97.79c.46-.5,7.94,3.74,8.24,4.63,3.13,26.05-27.02,34.72-46.31,23.33-13.09-7.73-18.48-29.37-10.81-42.38.66-1.13,4.12-5.8,4.99-6.12.77-.28,14.14,4.75,15.35,5.56.99.66.68.73-.04,1.37-1.95,1.7-4.25,3.07-5.84,5.3-12.39,17.4,6.75,43.82,26.4,28.49,6.67-5.21,8.83-11.77,8.03-20.17Z"/>
  <path class="st0" d="M96.26,897.78v-11.49c0-.79,2.31-7.08,2.87-8.27,3.86-8.22,13.24-17.84,18.73-4.97,1.72,4.03,1.66,6.77.47,10.95-1.88,6.63-5.23,4.95-10.71,7.39-3.96,1.77-7.82,3.9-11.36,6.39Z"/>
  <path class="st3" d="M511.22,901.26c-3.5-2.25-7.08-4.43-10.88-6.17-5.52-2.51-9.47-1.01-11.2-7.6-3.65-13.91,6.71-22.64,16.4-9.43,4.85,6.61,6.08,15.19,5.68,23.2Z"/>
  <path class="st3" d="M248.73,912.4c-1.08,1.13-1.23-.47-1.54-.91-1.24-1.78-2.21-3.7-3.66-5.37-2.11-2.43-7.43-6.4-7.98-9.42-1.03-5.6.44-22.55,9.54-18.59,7.46,3.25,8.27,16.59,7.06,23.41-.24,1.33-3.01,10.47-3.4,10.88Z"/>
  <path class="st3" d="M165.18,910.31c-1.63,1.11-4.16-12.38-4.17-13.58-.02-5.53,3.53-20.64,11.32-19.02,5.7,1.18,8.06,13.6,6.65,18.2-.56,1.84-13.66,9.76-13.8,14.4Z"/>
  <path class="st3" d="M570.4,885.24c-3.43-1.39-6.57-3.51-9.97-4.99-6.84-2.97-11.52-1.29-12.82-10.16-.88-6.03.23-15.18,8.2-11.68,8.8,3.86,15.07,17.55,14.59,26.83Z"/>
  <path class="st8" d="M434.63,112.41c-1.41-1.2-7.87-4.77-8.28-6.04-.29-.91.79-5.45.44-8.05-.52-3.87-2.58-5.82-3.99-8.87,6.41-2.62,7.68-7.89,10.98,1.19,2.73,7.5,2.25,14.08.85,21.77Z"/>
  <path class="st9" d="M320.68,100.35c-3.84-4.19-.76-10.69,5.54-9.37,10.96,2.3,1.03,16.55-5.54,9.37Z"/>
  <path class="st6" d="M421.4,92.91c2.17,4.7-.77,10.96-5.33,5.94-.04-1.63,3.7-7.04,5.33-5.94Z"/>
  <path d="M381.12,136.68c-2.14-1.33-1.02-15.24,6.69-11.9,8.45,3.66-2.49,14.51-6.69,11.9Z"/>
</svg>