<?xml version="1.0" encoding="UTF-8"?>
<svg id="Layer_1" xmlns="http://www.w3.org/2000/svg" version="1.1" viewBox="0 0 588.74 1036.57">
  <!-- Generator: Adobe Illustrator 29.6.0, SVG Export Plug-In . SVG Version: 2.1.1 Build 207)  -->
  <defs>
    <style>
      .st0 {
        fill: #75a14c;
      }

      .st1 {
        fill: #777;
      }

      .st2 {
        fill: #d99635;
      }

      .st3 {
        fill: #2c2c2c;
      }

      .st4 {
        fill: #050706;
      }

      .st5 {
        fill: #050707;
      }

      .st6 {
        fill: #d99634;
      }

      .st7 {
        fill: #040505;
      }

      .st8 {
        fill: #fbfbfb;
      }

      .st9 {
        fill: #2d2d2d;
      }
    </style>
  </defs>
  <path class="st4" d="M393.7,34c6.88,2.49,23.63-5.94,28.73-3.49,3.19,1.53-.75,10.23-1.95,12.81-1.77,3.8-6.27,10.37-9.27,13.26-1.64,1.59-9.08,5.92-8.89,7.23,25.64,36.89,26.7,84.07,36.8,126.48,2.75,11.53,6.3,24.94,12.2,35.21,3.78,6.59,9.33,11.49,12.85,18.05-.47,5.62-30.33,7-34.74,1.93l-1.53,8.5c49.32,10.46,89.37,23.2,111.92,71.83,8.74,18.86,23.67,60.56,26.69,80.56,1.25,8.28-4.07,7.3-4.12,10.36,1.67,8.4,3.71,16.81,5.03,25.28,1.08,6.95,2.26,27.53,4.28,32.26.61,1.45,2.41,1.64,3.3,2.91,8.23,11.64,8.92,32.44,5.85,45.85.7.93,9.12-11.6,7.74,7.37-1.66,22.88-16.22,44.62-24.97,65.18-3.08,7.24-12.16,28.7-12.92,35.33-.46,4.02,4.91,22.07,5.84,28.01,4.72,30.03,1.52,73.5-26.25,92.22-5.6,3.78-10.96,4.16-15.75,6.78-2.25,1.23-4.86,5.05-7.11,6.87-5.37,4.34-13.1,9.05-20.15,9.39-3.39.16-7.54-1.73-9.17-1.46-1.89.31-5.15,3.55-8.27,4.19-30.98,6.34-10.58-39.08-8.04-52.37,1.54-8.04,2.15-16.06,1.77-24.26l-5.29,15.3c-3.52,7.73-10.67,17.04-20.32,14.25-1.03,22.71,8.54,43.85,12.96,65.93,5.62,28.11,7.52,56.47,13.97,84.75,1.01,4.42,6.85,22.52,6.15,25.04-1.15,4.14-9.13,7.26-10.22,9.32-1.29,2.44,4.95,13.34,6.62,15.95,4.06,6.36,9.9,13.19,16.59,16.82,13,7.06,25.49-1.65,36.63,11.53,4.28,5.05,3.77,4.73,8.86,9.01,11.47,9.66,16.54,25.98,12.72,40.59-.66,2.53-2.94,9.23-6.06,9.22-2.44,0-11.74-12.73-18.94-13.37-1.57-.14-4.25,1.92-6.26,2.39-5.27,1.24-10.42,1.7-15.56-.42-.27,8.03-2.52,17.43-7.79,23.69-7.95,9.43-9.02-2.58-13.92-7.79-.81-.86-4.84-4.13-5.7-4.45-.78-.3-8.27,1.21-11.07,1.01-8.19-.59-15.17-5.11-21.32-10.13-.58,8.86-5.59,18.81-12.42,24.5-9.64,8.02-8.26-1.3-12.56-7.66-.68-1-4.05-4.76-4.87-5.23-2.28-1.29-8.29-1.08-12.07-2.69-9.95-4.21-16.39-17.56-16.38-27.98,0-2.25,1.71-6.25,1.43-7.69-.12-.59-5.86-6.28-7.13-8.32-5.26-8.44-4.5-17.89-.36-26.66,1.22-2.58,4.08-5.25,4.52-7.91.82-4.9-.48-11.53,0-16.64-3.8-.49-10.37-1.79-12.01-5.47-2.29-10.81-3.1-21.86-5.42-32.67-4.1-19.1-12.43-37.37-17.42-56.42-4.09-15.62-5.29-33.15-9.6-47.92-4.7-16.11-13.69-34.14-19.4-50.55-6.8-19.56-13.02-39.46-17.68-59.65l-19.71-.86c-4.14,18.66-8.19,37.39-12.48,56.03-2.37,10.31-9.22,30.12-9.73,39.28-.52,9.28,3.42,24.57,3.89,34.97,1.44,32.01-6.91,64.31-6.24,97.21.08,4.01,2.64,9.45-1.11,12.82-1.86,1.67-6.53,1.7-6.6,4.2-.09,3.26,8,16.11,9.67,20.67,7.41,20.23-.86,37.69-22.6,41.1-11.19,1.75-20.32.62-31.95,3.78-25.29,6.87-59.21,36.07-85.6,23.91-1.87-.86-5.44-4.18-6.57-4.24-2.28-.12-11.05,3.84-13.39,5.26-3.19,1.93-7.59,7.51-11.36,6.27-4.29-1.41-4.59-21.54-2.07-25.55-4.2.88-7.83-2.48-11.81-2.18-2.37.18-8.83,2.53-11.23,3.59-6.96,3.09-15.5,13.84-16.59-.22-1.36-17.53,11.98-39.41,28.75-45.14,1.54-.53,3.62-.05,4.51-.54.35-.19,3.56-4.83,5.21-6.05,11.73-8.69,28.47-2.79,41.96-3.86,12.36-.98,27.62-7.61,34.5-18.31-.11-1.49-13.52-4.32-14.32-10.37l1.95-29.25c1.96-70.68-10.13-141.79-3.13-212.28,2.53-25.48,7.67-50.73,10.74-76.13-.35-1.53-5.41-2.04-6.06-5.53.11-21.72-1.7-43.35-3.91-64.9l-14.51,9.96c-10.98,7.11-31.31,18.15-44.19,19.5-2.99.31-7.37,1.01-7.93-2.81s6.08-9.51,5.28-10.32c-16.61,7.27-37.1,12.08-55.15,8.19-2.91-.63-16.88-5.47-16.22-9.25.17-.98,8.9-8.59,9.26-11.37-21.93-8.64-15.91-38.74-10.3-56.58,6.5-20.69,17.61-39.49,29.86-57.18,1.29-1.86,8.9-11.14,9.05-11.93.28-1.46-2.5-3-.84-7.07,18.1-21.42,31.25-46.4,47.38-69.18,15.9-22.44,31.26-35.58,57.44-45.11,3.38-1.23,16.58-4.25,17.84-5.07.77-.5,4.12-7.48,4.68-8.92.74-1.88,4.85-15.22,4.69-16.04-.38-1.94-6.8-5.41-6.85-8.26-1.82-1.29-7.76,8.05-8.66,9.58-1.4,2.38-3.07,5.76-4.12,8.31-.68,1.65-2.43,8.95-2.82,9.22-4.18,2.92-18.94-11.12-21.63-14.32-26.61-31.57-23.23-78.86,17.87-94.95-.45-7.49-1.85-14.96-2.36-22.43-.28-4.22.69-10.21-.02-13.97-.3-1.59-3.89-5.98-4.86-9.13-5.1-16.53,4.4-30.19,18.33-38.06,3.28-1.85,9.53-3.65,11.81-5.28,1.88-1.36,4.33-5.85,6.18-7.81,32.8-34.88,80.84-40.97,126.61-39.67,25.61.73,50.31,5.62,75.3-3.07C384.16,9.3,400.66-.1,401.87,0c4.42.36,2.03,13.24,1.41,15.99-1.61,7.04-4.51,12.87-9.57,18.01Z"/>
  <path class="st3" d="M416.99,359.78l-.8,7.41c1.45,17.17,7.58,33.28,12.4,49.64-2.7,13.24-10.63,24.26-16.24,36.24,8.38-4.34,12.34-14.26,18.29-20.16,3.01-2.99,2.52,5.11,4.98,6.57,1.67.99,4.52-.41,5.85,1.14.61.72,4.16,16.7,4.19,18.37.06,3.16-8.33,24.66-9.8,30.45-6.06,23.75-8.01,48.37-7.24,72.89.07,2.23,1.79,5.32.05,6.99-1.97,1.9-21.46,7.57-25.48,8.7-60.17,16.86-131.15,20.06-193.03,11.78-7.7-1.03-55.64-10.16-58.35-14.66-.94-12.28-1.02-24.66-1.93-36.94-.62-8.33-2.72-17.57-3.09-25.67-.07-1.63-.28-3.91,0-5.42.55-2.85,15.66-14,18.57-17.16,35.13,3.49,64.77-9.49,93.63-27.54,12.18-7.62,27.28-17.2,38.34-26.14,6.41-5.19,14.93-12.64,14.89-21.69,0-2.09-1.16-4.02-.84-6.15.24-1.55,1.91-2.96,2.49-4.57,2.92-8.1,1.91-18.22-6.09-22.98-1.91-1.14-8.79-2.49-9.26-3.17-.58-.85-.31-4.13-.93-6.07-5.15-15.95-36.52-13.24-49.13-10.73-3.45.69-18.7,5.99-19.74,5.89-.83-.08-6.49-4.66-6.6-5.16,6.45-8.27,15.83-15.96,24.88-21.63,5.39-3.38,21.21-12.27,26.75-13.65.43-.11,1.26-.23,1.14.37-1.19,1.95-10.34,12.15-9.31,13.6,6.92,1.57,14.86-.72,21.56-2.89,13.2-4.28,24.74-12.2,36.29-19.64.66,3.82-4.67,9.2-4.94,12.18-.32,3.44,9.24.33,11.37-.31,19.41-5.87,36.49-20.84,50.26-35.2,1.24,1.97-1.85,11.52-1.16,12.44,20.47-6.69,36.96-24.63,45.1-44.26,24.22,5.25,51.72,11,72.85,24.5,39.71,25.38,47.21,78.33,61.26,119.82.03,2.07-10.28,7.75-12.54,8.92-31.23,16.23-68.62,20.82-103.29,16.07l-25.37-72.18Z"/>
  <path class="st3" d="M422.43,581.36c1.02,12.27.91,24.62.82,36.96-.05,6.56-1.21,13.25-.85,20.21.9,17.14,5.87,35.74,6.23,52.84.21,9.92-3.61,19.08-.36,29.13,4.1,12.69,1.56,20.86,3.83,33.48,2.66,14.78,8.82,29.89,11.69,45.05,3.97,20.96,5.27,42.76,9.16,63.91,2.45,13.3,5.5,26.56,9.52,39.46l-.36,1.24c-25.66,17.46-61.45,18.84-90.55,9.7-2.08-10.59-3.1-21.34-5.42-31.89-4.22-19.18-12.47-37.32-17.42-56.42-3.87-14.92-5.08-31.09-9-45.41-4.9-17.9-15.27-38.66-21.56-56.94-4.15-12.07-8.02-24.3-11.65-36.54-1.02-3.43-5.63-22.95-6.37-23.94-1.15-1.53-14.85-.55-17.91-.73-14.35-.82-30.6-3.75-44.78-6.48-6.62-1.28-13.57-3.56-20.02-4.05,9.88,8.26,23.16,10.78,35.2,14.51l1.32,1.8c-3.93,25.35-11.71,49.94-16.75,75.01-1.47,7.29-4.05,18.19-4.24,25.31-.27,9.78,2.57,21.21,3.1,31.09,1.57,29.49-5.11,63.05-6.24,93.26-.2,5.29.25,10.65,0,15.94-27.39,6.08-56.68,4.13-82.22-7.81l2.31-35.27c.9-69.25-10.47-138.42-3.13-207.61,2.52-23.78,7.27-47.4,10.1-71.14,25.79,9.18,53.48,12.93,80.75,14.77.54,16.13,2.15,33.29,12.04,46.65l-5.04-30.71v-15.16s17.08.78,17.08.78c.94,15.51,1.04,33.83,10.86,46.65-3.72-15.28-6.22-30.83-5.43-46.65,52.59,1.46,105.04-6.21,155.3-20.98Z"/>
  <path class="st3" d="M198.8,302.24c-8.62,5.17-10.53,14.89-15.34,22.32-.4.62-.5,2.13-1.73,1-.3-.27-2.54-6.53-2.89-7.61-3.32-10.08-3.85-20.77-2.55-31.26l-16.31.77c9.07-11.31,18.85-23.16,20.97-38.08,1.09-.25,1.28.16,1.95.76,4.45,3.93,8.54,10.25,13.64,14.33,24.4,19.56,67.31,9.64,91.49-6.22,18.03-11.82,49.64-45.47,35.16-68.5-12.13-19.3-39.16-8.79-56.35-17.44-18.26-9.18-18.93-29.67-33.94-39.1-8.47-5.32-16.13-5.23-25.55-2.79,2.12-29.36-27.21-44.51-45.22-18.45l-7.58,15.34c-1.62-8.4-.53-19.73,4.65-26.82,11.81-16.13,48.14-12,48.2-39.66,0-1.31.02-4.72-1.6-5.04-9.87,26.49-45.63,18.65-56.31,44.31-3.19-20.7,19.97-31,36.89-32.65.79-2.25-3.18-2.29-3.74-3.24-1.89-3.23,9.4-12.61,11.91-14.61,23.45-18.65,56.67-25.99,86.14-27.27,38.21-1.66,77.7,10.12,113.79-7.74-1.97,12.13-12.69,17-20.96,24.09,12.94,4.28,25.66,3.57,38.82.79-3.98,10.57-12.32,15.47-22.22,19.36-.8.32-1.33-.41-1.06,1.23,27.71,34.03,30.31,79.72,39.06,121.06,3.81,17.99,8.15,38.39,18.53,53.75,1.71,2.54,5.94,4.89-.54,5.21-8.47.42-16.99-3.62-24.44-7.02v12.05c0,1.42-2.6,9.5-3.29,11.48-5.23,14.96-16.14,29.18-29.31,37.89-.11-7.49.6-15.47-1.95-22.54-14.4,19.94-31.66,37.86-54.36,48.19-.1-9.04,6.52-17.98,5.44-27.2-15.95,15.62-34.48,31-56.3,37.31,3.41-6.77,8.21-13.85,10.28-21.19.3-1.07,1.41-1.5-.56-1.34-19.91,11.07-41.19,18.25-59.34,32.33-2.03,1.58-13.42,12.07-14.34,11.91-7.93-6.75-14.27-16.43-17.02-26.55-.58-2.12-2.11-8.56-2.11-10.32v-12.83Z"/>
  <path class="st3" d="M555.21,420.42c5.69,27.63,8.83,55.71,9.33,83.96,1.18-.43,2.1-2.74,2.72-3.87,1.33-2.44,2.14-5.45,3.3-7.57.36-.66.68-2.22,1.73-1,.5.58,2.24,13.63,2.26,15.25.07,7.06-2.11,14.71-4.03,21.46l-6.76,15.38,3.81-2.01,11.72-9.25c-3.14,22.73-15.86,41.9-24.44,62.6-3.4,8.2-12.47,30.51-11.99,38.35.4,6.48,3.93,15.92,5.14,22.89,4.11,23.77,4.32,44.49-5.85,66.77-4.51,9.87-10.52,19.51-21.09,23.58,5.26-14.55,11.48-30.36,10.08-46.25-.15-1.66-.77-5.74-2.31-6.61-2.15,17.68-5.47,35.44-14.93,50.76-6.15,9.96-15.98,21.11-28.57,21.54,2.85-6.71,6.92-12.66,9.68-19.46,6.1-15.03,9.51-32.29,8.17-48.56-.08-.94-.29-4.16-1.54-4.28-3.66,21.53-9.75,56.25-27.18,71.14-3.5,2.99-12.04,7.94-13.16.72-2.01-13,5.77-26.47,8.24-39.07,3.59-18.24,2.97-36.7-2.09-54.57-9.03,11.02-10.53,26.13-15.94,38.85-2.21,5.19-6.45,15.01-13.17,10.13-7.55-5.48-2.28-24.92-.17-32.82,3.01-11.27,8.25-23.87,14.51-33.67,6.97-10.9,14.98-17.61,17.67-31.29,4.97-25.34-2-53.89-.59-79.9.22-4.01,4.27-34.17,7.39-34.45,3.21,1.23,6.52,2.57,9.92,3.21,1.03.19,1.52,1.45,1.36-.59-22.41-17.11-34.2-42.78-38.04-70.37,36.08,5.02,72.87-4.56,104.82-21Z"/>
  <path class="st3" d="M117.26,416.53l-22.1,1.59c-20.3-1.36-44.18,6.98-58.67,21.34-.91.9-2.98,2.78-.39,2.72,16.43-8.52,34.37-13.74,52.83-15.53,18.95-1.83,44.77.66,58.6-15.19,3.02-3.47,5.16-7.76,8.17-11.26,10.11-11.77,46.37-35.36,61.76-31.5.88.22,4.9,1.95,3.1,3.14-7.25,3.15-14.56,6.58-21.5,10.35s-15.07,8.3-21.22,13.34c23.53-6.39,44.52-20.34,68.33-26.04,10.77-2.58,36.87-6.46,43.83,4.32,3.57,5.53-1.1,4.13-4.51,4.72-26.69,4.66-51.98,12.39-73.48,29.44,11.79-1.6,22.1-8.18,33.2-12.24,15.79-5.77,36.51-11.42,53.39-9.53,7.34.82,10.27,5.46,8.75,12.66-.1.47-1.96,5.05-2.19,5.22-.44.33-3.83-1.34-5.08-1.48-18.88-2.13-50.92,16.03-66.07,27.04-.8.58-2.47.78-2.58.89-.36.36-.4,1.89,1.07,1.47,18.63-5.31,45.98-23.93,64.57-22.5,14.71,1.13,3.88,13.92-1.97,19.08-18.79,16.59-62.06,42.65-86.03,49.14-16.23,4.39-30.79,4.09-47.34,4.69-19.82,16.42-39.15,36.04-63.12,46.43-2.91,1.26-9.17,3.93-12.02,4.3-1.21.16-1.31.07-1.15-1.16,6.31-7.28,11.5-15.94,13.96-25.28-19.14,14.9-44.36,27.32-69.4,24.78-1.78-.18-10.21-1.96-10.99-2.99-.88-1.17-.08-1.21.41-1.97,3.31-5.11,6.56-9.18,6.22-15.93-10.86.72-16.14-6.63-17.07-16.73-2.58-27.91,20.57-69.81,37.73-91.26,3.76-4.7,11.09-14.18,17-14.85,14.53-1.66,34.27,3.4,46.99,10.48,2.2,1.23,6.97,3.52,6.97,6.24v12.05Z"/>
  <path class="st1" d="M173.95,227.61c6.57-.74,12.29-2.81,18.85-.62,10.52,3.51,5.47,18.29,19.16,22.03,29.25,8,69.01-18.51,82.36-43.96l8.52,6.22c3.44-13.46-7.83-17.58-19.05-14.03-3.33,1.06-10.37,4.19-3.11,4.73l6.63.73c-17.03,7.16-35.22,14.43-53.93,15.59-16.92,1.05-35.36-2.45-51.84-.59s-29.47,15-33.23,30.88c-31.36-21.29-37.49-71.66.62-89.96,11.72-5.63,25.14-6.57,37.41-10.75,13.83-4.71,26.92-16.87,41.72-8.28,9.22,5.35,13.41,19.34,20.45,27.73,15.57,18.55,27.73,15.52,49.27,17.53s25.7,17.25,16.06,34.72c-16.89,30.63-61.02,53.59-95.68,46.56-16.14-3.28-22.2-14.23-32.17-25.32-3.23-3.59-8.08-7.21-10.89-10.87-.6-.78-1.51-.99-1.16-2.33Z"/>
  <path class="st3" d="M58.25,379.99c14.56-19.79,26.17-41.76,40.52-61.67,15.77-21.86,33.5-35.57,60.03-42.52.61.78-1.03,2.54-1.53,3.14-2.42,2.89-6.14,6.27-8.94,8.97-1.23,1.19-3.52.91-1.98,3.48,1.9,3.18,18.12,5.01,22.16,4.64-.37,12.44,2.08,26.62,9.14,37.11,10.43,15.49,8.08-2.96,14.92-9.12,2.02,14.56,11.06,26.36,20.97,36.53-11.21-.26-22.9,6.01-32.63,11.26-11.29,6.1-22.08,13.33-30.67,22.94-8.79,9.84-9.34,16.71-24.15,20.15-1.49.35-.95-.03-1.07-1.08-3.25-27.93,7.24-52.39,9.31-79.7-2.44,1.39-3.6,4.76-4.79,7.25-7.33,15.46-12.11,34.76-13.07,51.84-4.97-3.15-10.35-5.79-15.9-7.79-4.43-1.6-16.82-5.43-20.98-5.43h-21.35Z"/>
  <path class="st2" d="M234.51,914.89c3.4,14.13,16.54,24.73,11.25,40.41-5.01,14.84-22.22,12.24-34.13,13.25-11.69.99-25.24,5.81-35.86,10.74-18.5,8.58-39.47,24.86-60.82,16.45-.77-1.06,3.66-4.65,4.53-5.95,5.7-8.55,5.34-23.34-3.36-29.81-1.07-.79-5.53-1.74-4.28-3.09.38-.42,5.72-1.88,6.83-2.11,7.71-1.62,13.89-.82,21.34,1.49l12.21,6.82-6.21-9.32,20.18-5.83c-4.31-2.35-11.13-2.4-15.94-1.98-4.07.36-8,2.69-11.02,2.96-2.32.21-5.64-1.25-8.34-1.41-14.88-.9-22.22,4.68-34.34,11.55-3.11,1.76-5.3,4.16-8,6.36,2.47-9.52-.18-18.4-8.53-23.71,10.91-9.03,25.05-2.82,37.68-3.47,16.45-.84,35.69-9.77,44.3-24.18,23.17,6.98,49.23,7.57,72.53.82Z"/>
  <path class="st6" d="M383.61,925c16.61,3.05,33.04,2.92,49.56-.53,6.92-1.45,13.49-4.25,20.26-5.62,4.85,15.5,21.83,37.09,38.71,39.38,8.83,1.2,18.49-2.33,24.26,7.19-16.99,1.87-17.48,23.9-7.77,34.21-3.02,1.18-11.55,1.29-13.79-.95-1.05-1.05-1.57-5.55-2.36-7.35-2.18-4.97-5.52-10.81-8.05-16.04-5.93-12.27-25.19-20.85-36.36-10.63h11.26c.57,0,5.32,1.77,6.35,2.19,5.32,2.21,10.32,6.55,13.46,11.4-1.49-.08-2.5-1.01-4.27-1.18-16.55-1.61-25.4,22.26-15.15,34.23-5.06.62-10.03-1.36-14.24-4.01-.85-.53-5.67-4.36-6.01-4.87-1.52-2.32-.45-9.55-.92-13.07-1.59-11.77-14.11-22.63-23.47-28.59l12.16,19.7,2.97,6.74c-14-17.6-35.89-2.43-33.31,17.43.33,2.55,2.29,4.83,1.88,7.44-12.73-4.58-15.83-19.06-12.43-31.09,1.26-4.47,4.14-8.18,5.82-12.43-2.62-.63-9.46,6.38-10.4,6.19-6.08-4.81-7.5-13.54-5.38-20.83.62-2.13,4.64-10.06,7.24-7.91v-20.99Z"/>
  <path class="st8" d="M434.09,673.87c-.39-16.26-4.96-32.23-3.92-48.62,2.05-15.53,1.16-31.13-.49-46.66.3-1.91,7.02-1.49,8.12-6.34-2.01-28.93-.38-57.2,7.38-85.14,1.24-4.45,2.37-10.38,5.21-13.83,3.44,11.69,9.98,22.89,18.49,31.59-6.82,19.22-8.36,40.21-7.64,60.57s5.22,39.62.58,58.82c-2.84,11.74-11.59,19.16-17.48,29.15-3.49,5.93-5.63,12.59-8.68,18.52-.37.73-.41,1.85-1.56,1.93Z"/>
  <path class="st3" d="M233.74,906.34c.22-8.15-.31-16.37-.04-24.52.85-25.78,7.44-54.04,6.24-79.26-1.14-23.85-4.62-33.68.37-58.73,5.04-25.33,12.71-50.28,17.41-75.71,5.37-.74,9.27-2.32,8.44,4.4-3.6,29.17-16.29,61.87-21.54,91.17.31,13.02,3.34,25.9,3.86,38.88.98,24.08-5.11,48.27-6.2,72.31-.35,7.84,1.26,20.27,0,27.2-.5,2.76-6.12,3.46-8.54,4.27Z"/>
  <path class="st0" d="M200.25,134.2c-.24.37-3.69.97-4.55,1.66-3.67-25.84-26.47-13.17-22.86,7.04-.65.98-12.26,3.67-12.87,3.07.21-8.82,1.49-18.04,5.55-25.94,10.13-19.74,31.6-18.95,34.61,4.77.2,1.59.61,8.64.12,9.4Z"/>
  <path class="st3" d="M46.6,981.75c.27-11.08,8.02-24.63,17.61-30.18,13.02-7.54,21.33,2.56,15.14,15.16-4.24,8.62-11.26,6.88-19.38,9.36l-13.36,5.66Z"/>
  <path class="st3" d="M84.65,998.86c-.81-9.34,2.43-19.71,8.56-26.8,9.62-11.12,24.18-9.19,21.53,7.56-1.9,12.04-13.01,10.39-21.54,14.19-3.25,1.45-5.41,3.76-8.55,5.04Z"/>
  <path class="st3" d="M483.01,1022.96c-.82-3.38-5.03-7.54-7.75-9.74-4.5-3.63-9.53-4-11.14-10.62-4.35-17.95,16.18-24.83,22.01-4.93,2.38,8.12,2.41,18.54-3.12,25.29Z"/>
  <path class="st3" d="M419.33,1025.29c-1.62-8.18-12.82-12.74-13.92-20.67-.92-6.68,1.03-15.7,8.95-16.59,16.31-1.83,16.74,30.51,4.97,37.26Z"/>
  <path class="st3" d="M535.8,1004.69c-.03.21-.94,2.04-1.16,1.94-2.19-2.44-4.36-4.31-7.15-6.06-9.72-6.1-18.72-3.49-17.35-19.24.89-10.26,12.31-10.48,18.31-4.26,2.4,2.48,7.35,12.01,7.35,15.19,0,3.68.5,9.06,0,12.44Z"/>
  <path class="st9" d="M218.99,243.15l12.15-6.89c13.52-6.15,26.9-12.55,41.04-17.22l-7,7.76c-6.47,5.49-26.03,16.35-34.15,16.35h-12.04Z"/>
  <path class="st5" d="M318.37,151.4c4.91.99,10.84,2.87,13.98,7-9.07-1.54-18.32-2.21-27.47-.68s-24.89,11.46-31.92,10.8c-3.68-.35-11.22-13.25-12.71-16.83-11.31-26.99-.45-68.05,35.89-52.26,20.68,8.99,27.59,31.03,22.24,51.97Z"/>
  <path class="st4" d="M334.68,103.98c-18.96-22.69-46.94-40.93-76.86-26.44,4.35-26.8,39.8-16.8,55.06-5.76,10.92,7.9,17.73,19.52,21.8,32.2Z"/>
  <path class="st7" d="M207.34,170.06c.36-8.77,16.02-13.71,16.93-3.3.58,6.67-4.24,1.97-7.23,1.71-3.52-.31-6.34,1.34-9.7,1.59Z"/>
  <path class="st0" d="M311.29,149.76l-13.1,1.65c4.33-9.05,4.29-22.76-5.18-28.63-4.24-2.63-7.58-2.27-11.51.65-9.99,7.43-8.43,29.74,4.26,33.81l-8.15,6.64c-14.04-11.46-19.4-35.82-10.91-52.16,5.92-11.39,17.46-9.84,27.63-5.03,16.2,7.66,21.91,26.47,16.96,43.07Z"/>
</svg>