<?xml version="1.0" encoding="UTF-8"?>
<svg id="Layer_1" xmlns="http://www.w3.org/2000/svg" version="1.1" viewBox="0 0 569.7 949.28">
  <!-- Generator: Adobe Illustrator 29.6.0, SVG Export Plug-In . SVG Version: 2.1.1 Build 207)  -->
  <defs>
    <style>
      .st0 {
        fill: #96cf43;
      }

      .st1 {
        fill: #2f2f2f;
      }

      .st2 {
        fill: #eca21f;
      }

      .st3 {
        fill: #98d044;
      }

      .st4 {
        fill: #262626;
      }

      .st5 {
        fill: #252424;
      }

      .st6 {
        fill: #242424;
      }

      .st7 {
        fill: #fbfbfb;
      }

      .st8 {
        fill: #fcfcfc;
      }

      .st9 {
        fill: #252525;
      }

      .st10 {
        fill: #eda21f;
      }

      .st11 {
        fill: #787878;
      }

      .st12 {
        fill: #2f2e2f;
      }

      .st13 {
        fill: #252524;
      }

      .st14 {
        fill: #95ce43;
      }
    </style>
  </defs>
  <path d="M453.94,500.46v10.1c0,1.85-2.16,6.83-3.12,8.72-4.33,8.55-11.92,14.97-19.87,19.99l2.81,34.72c-.12,2.93-2.5,4.93-4.85,6.22,2.14,5.56,3.71,11.43,5.06,17.23,5.19,22.27,8.83,45.63,8.68,68.52-.19,28.6-8.38,56.91-10.99,85.03-1.68,18.12-2.32,41.09-1.43,59.26.37,7.56,3.27,18.25,2.86,25.08-.08,1.3-.14,2.21-.81,3.38-1.02,1.78-2.95,1.34-2.7,2.84.65,1.85,10.09,8.22,12.3,9.3,19.67,9.6,33.19-11.53,57.25,4.72,3.43,2.32,6.07,6.68,8.04,7.99,1.57,1.04,5.06,1.6,7.12,2.63,15.18,7.64,25.08,31.52,17.67,47.19-2.87,6.08-5.56,1.06-8.86-.96-5.26-3.21-11.74-6.35-18.08-6.34-2.56,0-6.74,2.79-9.45,3.63-7.86,2.44-15.47,3.48-23.52,1.2,1.28,4.21-2.81,24.42-8,24.39-1.7,0-12.82-11-19-11.74-1.72-.21-10.04,3.61-13.82,3.98-19.87,1.97-31.88-11.31-49.15-16.84-5.86-1.88-12.28-3.18-18.39-3.89-25.68-3-61.6,1.4-49.02-38.09.92-2.89,7.14-14.25,7.01-15.29-.05-.44-4.89-.96-5.54-6.36-.33-2.74.63-4.5.67-6.87.39-24.26-4.9-43.38-6.29-66.24-1.03-16.86,2.39-32.38,8.32-48.01-8.3-20.35-14.79-41.38-20.15-62.69-.62-1.11-2.98-.46-3.43.67-7.03,14.19-14.79,28.07-23.46,41.33-5.06,7.75-20.42,25.99-22.92,32.81-2.59,7.05-3.05,21.17-4.72,29.42-4.91,24.24-17.91,44.92-23.25,68.72-1.33,5.91-1.81,17.26-3.87,21.91-1.23,2.79-4.45,2.34-4.7,2.62-.4.43,3.39,9.39,3.84,11.14.72,2.81.55,6.41,1.18,8.58.2.68,3.64,4.29,4.6,5.85,5.8,9.45,7.12,24.6.97,34.15-1.64,2.54-4.55,3.97-5.5,5.3-.78,1.1-1.66,5.47-2.63,7.48-2.11,4.38-11.95,17.4-17.28,15.92-1.72-.48-7.59-13.2-11.25-15.28-1.69-.96-3.37-.54-5.12-1.14-7.77-2.65-13.49-5.4-18.61-12.04-1.39-.44-.92.89-1.7,1.71-5.69,6.01-14.16,11.75-22.76,12.16-2.63.12-5.61-1.44-7.9-.3-.35.18-4.45,5.1-5.16,5.99-4.77,5.92-4.85,12.38-12.6,4.13-6.25-6.65-9.59-16.72-9.4-25.79-9.75,5.22-19.69,8.2-30.79,6.08-3.94-.75-7.08-2.86-11.14-2.43-2.43.26-7.58,2.25-9.85,3.41-7.65,3.88-11.66,13.25-15.29-.9-3.21-12.51-.92-28.7,7.92-38.54,2.71-3.02,6.68-4.58,8.65-6.68,1.86-1.98,3.46-6.28,5.92-8.71,7.21-7.08,17.73-9.69,27.55-9.41,2.29.07,5.04,1.45,7.09.89,2.32-.63,14.72-10.37,15.5-12.39.52-1.36-4.05-2.42-4.48-3.84-4.06-5.12.78-12.34,2.21-17.94,6.65-26.07,6.22-53.35,12.03-79.59-17.33,5.44-34.41,6-51.3-1.27-14.37-6.19-5.35-6.26,1.17-14.06h-12.18c-12.92,0-30.93-11.07-39.32-20.58-2.1-2.39-9.09-9.42-3.7-10.6,6.61-1.45,13.23-2.13,19.85-3.86,36.53-9.59,82.25-38.58,107.09-67.03,12.41-14.21,12.83-34.6,16.77-52.29-.08-1.28-2.8-2.15-3.87-3.86-2.96-4.73.93-10.88,1.01-15.99-8.84-.16-16.43,2.01-25.32.6-17.49-2.77-26.33-13.07-36.24-26.45-1.2-1.62-2.3-4.75-3.41-5.99-3.39-3.79-12.08-9.02-16.5-13.1-7.14-6.59-13.66-14.56-19.36-22.44-1.51-2.08-6.32-10.61-7.4-11.44-1.44-1.1-6.38,1.17-10.8-1.71-8.65-5.62-15.33-33.16-16.64-43.27-.58-4.46-.17-10.58-.95-14.38s-6.67-13.15-8.53-17.94c-17.63-45.25-8.63-94.09,28.55-126.11,19.76-17.01,45.66-23.42,68.56-34.87.19-1.14-.94-.65-1.72-.69-4.33-.22-7.97-.18-12.34-.9-2.77-.46-17.8-4.27-17.21-7.71.17-.97,12.34-10.81,14.55-13.36,9.34-10.82,14.59-25.38,19-38.82,11.36-34.59,17.3-71.39,33.92-104.03-10.25-3.28-19.89-9.76-25.35-19.21-1.06-1.83-5.53-9.65-2.17-10.11,9.9,1.04,19.94.47,29.62-1.69-3.71-4.12-6.54-8.82-8.68-13.95-.99-2.38-5.32-13.44-3.19-15.01.93-.68,11.86,2.93,14.08,3.41C194.45,30.1,234.55-1.97,285.09.1c45.46,1.86,73.88,21.55,110.83,43.78,19.35,11.64,33.9,27.88,26.49,52.53-.67,2.22-3.66,6.95-3.78,7.94-.3,2.49,1.98,9.62,1.96,13.16-.03,5.51-4.19,16.34-3.95,19.54.05.7,3.06,5.94,3.69,7.84,1.83,5.58,3.14,9,5.2,14.31,7.5,19.45,7.35,37.43-.7,56.69-.75,1.79-4.95,8.88-4.97,9.63-.02.86,2.21,7.86,2.57,9.95.47,2.76.33,8.89.98,10.87.25.76.9,1.02,1.59,1.19,45.39,9.73,81.68,31.78,93.65,79.09.9,3.57,1.36,10.97,2.51,13.52.97,2.17,14.93,15.6,18.01,19.6,8.82,11.46,9.21,17.32,14.2,29.69,1.46,3.6,4.68,7.7,6.53,11.58,16.82,35.3,9.65,60.98-3.78,95.42-8.36,21.44-22.64,30.11-45.77,23.87-12.08-3.26-24.83-5.58-36.58-10.08-6.79-2.6-13.55-6.12-19.83-9.77Z"/>
  <path class="st9" d="M122.48,246.81c5.4,16.16,20.06,28.55,35.88,34.13,19.29,6.81,9.35-.43,9.75-13.25,15.86,17.8,38.39,29.88,62.31,32.05.57-.51-2.99-6.19-3.34-7.45-.24-.84-.53-2.02.9-1.6,19.16,12.76,42.29,19.88,65.11,22.28-1.98-3.84-6.39-6.5-8.47-9.98-.57-.96-1.16-1.3.45-1.15l26.52,11.09c4.69,15.22,18,30.12,35.15,28.93,2.57,9.92,8.11,17.98,15.64,24.76,1.85,1.67,10.16,7.24,10.71,8.1,1.49,2.32,4.13,16.26,5.44,20.34,2.9,9.09,6.64,18.02,9.95,26.96-.47.76-.95.88-1.76,1.04-12.32,2.47-21.06,3.86-32.82,8.96-8.96,3.89-13.81,8.53-24.22,9.21-19.82,1.29-42.26-.33-61.78-3.73-22.59-3.94-44.95-11.11-68.1-10.94.15-10.14-5.13-19.34-7.35-28.53-.75-3.09-.41-6.24-1.56-9.59-2.32-6.75-12.3-18.9-17.19-24.6-2.07-2.41-7.01-6.08-8.31-8.41-1.82-3.25-2.42-11.35-3.85-15.66-5.64-16.98-21.84-34.69-37.62-42.83l9.33,11.91c7.67,10.85,14.49,22.75,16.9,36.05.58,3.18.59,11.16,1.27,12.66.48,1.05,8.6,7.12,10.44,9.06,1.28,1.35,9.56,11.5,8.69,12.55-.81-.33-1.48-.68-2.41-.71-31.26-1.09-59.59,9.14-85.24,26.21-21.32,14.18-36.98,31.53-47.06,55.34-2.11-.98-6.73-21.43-7.23-24.82-.81-5.5-.37-12.72-1.63-17.88-.76-3.1-4.16-7.86-5.53-11.19-23.53-56.93-7.84-111.56,49.09-137.88,7.09-3.28,14.65-5.72,21.82-8.82,3.83-1.65,28.47-13.85,30.13-12.64Z"/>
  <path class="st9" d="M412.16,91.38c-3.78-3.93-7.54-7.56-13.06-8.88-13.44-3.22-28.98,6.99-39.16-6.8-1.75-2.37-2.1-5.39-4.17-7.32-.84,6.93-1.73,14.5,1.7,20.94.62,1.17,2.96,3.48,2.98,3.79.05.63-4.08,7.89-4.71,9.74-1.1,3.21-1.65,6.74-2.1,10.1-26.36-2.55-31.13,25.77-46.61,40.12s-39.23,17.62-52.59,33.08c-8.87,10.27-11.63,23.35-2.41,34.49,13.71,16.57,34.07,6.95,52.2,8.73-9.56,9.48-19.58,27.41-3.96,36.36,1.54.88,7.88,2.95,8.08,3.76-3.66,10.14-3.54,20.82.05,30.95-15.67-5.32-30.93-12.33-44.21-22.3-.86.27-.16,1.49-.02,2.11,1.39,6.19,5.41,12.74,8.73,18.09-24.03-5.85-45.7-18.99-64.41-34.83-1.83-.15-.69.3-.52,1.22,1.24,6.72,3.8,13.77,6.41,20.08.21,1.03.09,1.19-.95.95-3.63-.84-11.93-5.47-15.49-7.5-14.56-8.3-25.58-19.3-33.31-34.27-2.1-.51-6.61,13.09-6.61,14.98v10.1l-8.29-5.29c-7.97-5.4-19.56-20.05-19.56-29.91v-12.54c0-.05,1.67-1.67-.33-1.04-8.04,2.53-17.35,9.75-26.47,9.75h-10.79c24.01-25.38,29.45-62.39,39.34-94.78,5.14-16.83,10.49-33.87,17.63-49.95,1.28-2.87,7.51-13.57,7.68-15.33.22-2.26-4.38-1.52-6.21-1.93-7.58-1.69-15.91-5.5-21.54-10.83,9.88-.72,20.87-2.11,29.71-6.85.87-.47,5.7-3.59,5.79-3.97.36-1.45-4.38-3.8-5.58-4.86-.96-.85-10.41-10.28-9.74-10.8,18.1,3.41,35.4.93,52.91-3.84,36.61-9.97,59.8-20.74,99.69-14.07,35.63,5.96,61.21,23.9,91.29,41.73,8.37,4.96,18.59,14.7,18.59,25.3v11.5Z"/>
  <path class="st9" d="M176.64,390.55c.52.43,3.48,5.7,4.01,6.78,4.63,9.39,7,20.2,7.28,30.62-13.8,1.93-31.25,4.65-42.37,13.69-.69.56-5.06,4.37-4.23,5.17,26.53-7.65,54.02-12.16,81.6-8.16,37.81,5.49,65.09,15.11,105.33,13.03,13.89-.72,13.6-2.7,24.69-8.04,12.59-6.06,26.2-9.46,40.01-11.48,9.68,16.98,20.9,34.95,35.21,48.46,2.54,2.4,12.58,9.51,13.55,11.53,1.39,2.89,1.46,13.6,1.12,17.07-1.08,10.85-15.36,21.74-24.93,25.22-9.57,3.48-29.37,5.31-30.08-8.85l22.59-9.1,3.14,6.98c.27-1.19,1.86-7.99,2.19-8.27.35-.29,7.66-1.16,8.96-1.49-1.22-2.14-5.17-3.12-5.96-5.52-1.39-4.19-.06-8.7-.3-12.95-.04-.79.46-1.91-.68-1.72-4.28,12.09-15.88,16.57-26.99,20.73-14.55,5.44-27.17,8.44-42.49,3.86-3.61-1.08-8.07-3.94-11.28-4.77-3.7-.96-29.74,6.87-35.36,8.56-33.62,10.14-65.92,24.17-101.47,27.36-15.21,1.37-27.64-.04-42.47-.68-15.64-.68-25.75,5.32-40.95-4.31-9.96-6.31-13.03-15.11-19.95-23.24-5.01-5.89-13.68-11.11-19.52-16.7-7.48-7.16-14.55-16.44-20.05-25.23-1.75-2.8-8.41-13.73-9.03-16.07-.79-2.98,3-10.3,4.6-13.18,18.21-32.98,67.68-59.96,104.87-61.59,3.76-.16,16.28.09,18.99,2.32Z"/>
  <path class="st6" d="M267.34,652.38c.33,1.15,2.75,1.69,3.82,2.1,4.31,1.66,9.17,2.48,13.32,4.11.7.27,1.25-.38.9,1.03-16.04,33.31-37.09,64.06-61.9,91.38-.23,1.69.45.88,1.45.75,4.41-.56,8.59-2.57,12.47-4.59-3.21,36.85-26.48,67.11-29.54,103.88-26.13,4.55-54.36,1.7-79.61-6.13-2.66-.82-13.12-3.62-13.41-6.1,7.76-30.54,7.39-61.76,15.85-92.18,2.46-8.83,9.62-24.17,10.55-31.95,1.01-8.4.08-18.94.78-27.79,2.1-26.53,9.28-52.08,19.84-76.31l5.22-27.88c47.53,11.24,96.57,16.75,145.51,16.73-1.42,10.53-2.93,21.08-5.09,31.49-1.48,7.13-3.12,14.79-5.7,21.47h-34.46Z"/>
  <path class="st6" d="M337.66,307.42c.16,5.4,4.87,7.66,9.75,7.67-1.73,5.45-1.79,11.14-2.87,16.63-10.74.4-22.03-11.99-23.41-22.05-.85-6.17.77-17.58,5.39-22.12,4.21-4.15,29.15-10.21,36.57-12.88l7.99-3.49c-17.17-.31-35.63.61-50.77,9.45l-5.62,6.56c1.69-14.02,3.1-26.49,18.5-30.61,11.33-3.03,24.42-3.26,36.07-5.02l5.3-1.3c-5.09-.78-10.68-2.93-15.74-3.41-3.65-.35-11.85.69-14.42-.2-2.25-.77-.8-4.9-4.21-4.76-2.74.11-14.26,6.25-17.08,8.06-4.2,2.7-8.15,5.83-10.91,10.09-27.56-7.48,3.02-28.53,14.39-35.17,6.08-3.55,13.09-8.24,20.42-7.31,9.58,1.21,27.03,17.56,35.28,23.92,7.32,5.65,9.53,4.77,13.99,13.87,9.72,19.84,14.24,42.69,23.65,62.75,15.88,33.84,59.49,49.88,89.49,67.93,14.75,8.87,26.52,20.12,35.39,34.96-.68-13.65-6.21-27.33-17.75-35.19,3.41-.7,11.13-.14,13.62,2.4,2.77,2.83,8.11,13.24,9.95,17.22,15.13,32.58,8.24,56.08-4.26,87.53-6.22,15.65-14.17,21.81-31.45,17.9-16.2-3.67-37.54-9.69-51.93-17.71-46.7-26.02-69.05-74.75-80.44-125.07-27.6-13.41-34.77-42.05-17.72-67.63l-16.36,6.96h-10.79Z"/>
  <path class="st6" d="M334.53,598.72c.3-.03.96-.96,1.74-.69-.55,10.81-2.57,21.57-5.22,32.05l-5.57,16.72c13.82-12.64,15.84-31.69,16.36-49.48,26.18-1.19,52.28-6.19,77.28-13.94,4.31,17.61,9.11,35.22,11.14,53.32,6.32,56.58-14.14,111.31-11.16,167.97l2.03,28.81c-29.48,10.35-62.91,19.21-93.94,10.77-.27-8.07.45-16.25.06-24.31-1.35-28.05-13.82-57.86.32-84.63,2.37,2.55,4.94,4.82,7.79,6.83,1.24.88,3.54,2.99,5.09,2.57-13.85-26.26-24.25-53.69-31.33-82.58,2,.35,8.42-2.28,9.42-.73,3.91,16.86,9.01,33.44,16.44,49.05l4.77,8.11-18.8-58.53c18.25-4.92,36.67-12.6,51.53-24.39-8.38,2.17-62.71,18.25-66.84,15.32,8.73-15.88,11.22-34.37,12.53-52.26,5.21-.44,11.27.59,16.36,0Z"/>
  <path class="st6" d="M378.04,529.03c3.14,19.29,27.28,20.61,42.47,15.33-.37,3.56,3.82,25.12,2.7,26.4-28.77,9.46-59.05,14.95-89.35,16.84-47.59,2.96-117.9-1.4-163.59-15.42-10.2-3.13-7.05-2.58-5.27-12.49,31.13,3.3,61.57-3.48,91.2-12.19,14.83-4.36,29.26-9.94,44.03-14.47,8.04-2.47,26.43-8.93,33.79-9.43,1.52-.1,11.09,4.32,14.09,5.08,10.02,2.54,19.83,2.25,29.93.35Z"/>
  <path class="st11" d="M399.64,232.15c-7.34-23.39-25.12-35.37-48.58-39.53-19.43-3.45-66.29-3.01-81.16,11.78-2.19,2.18-5.68,7.84-.82,8.3,4.01.39,18.13-6.86,23.67-8.43,20.95-5.94,60.55-6.44,79.25,5.72,2.65,1.72,4.76,4.14,7.44,5.79-1.41.62-7.96,4.39-8.71,4.33-.84-.07-10.86-8.06-14.02-9.46-12.02-5.31-21.17-1.95-32.05,3.96-2.28,1.24-9.16,6.43-10.6,6.75-.96.21-5.67-1.48-7.46-1.67-3.25-.35-7.89-.84-11.08-.82-12.42.08-28.18,7.79-37.23-5.18-7.04-10.09,2.2-21.69,10.23-27.4,18.32-13.04,36.08-14.43,52.42-33.95,15.33-18.32,13.28-36.86,44.24-26.82,17.16,5.56,39.78,18.04,48.49,34.39,12.65,23.74,5.92,54.77-14.03,72.24Z"/>
  <path class="st10" d="M490.14,901.17c-4.15.57-8.68,1.11-12.87.69-10.06-1-7.54-6.51-13.22-12.55-2.58-2.74-7.59-4.67-9.2-6.47-.98-1.1-1.6-3.79-2.69-5.32-7.67-10.77-24.87-12.29-36.5-8.05-3.07,1.12-13.25,6.22-13.24,9.74,8.86,1.54,17.28-3.72,26.14-3.15,2.35.15,11.57,2.71,12.85,4.22,1,1.18-.44,1.22-.9,1.54-9.48,6.59-15.26,13.23-13.53,25.8.53,3.87,2.47,6.85,3.99,10.28-18.72.44-32.13-13.28-49.83-18.06-12.84-3.47-23.98-2.86-36.76-4.33-4.03-.46-16.71-2.59-19.51-4.87-6.45-5.25,2.69-28.21,7.33-34.02,29.19,4.39,58.75-1.32,86.45-10.41,10.93,11.04,23.48,19.66,39.82,18.01,6.94-.7,13.4-5.18,20.91-4.9,3.4.12,14.23,3.57,16.01,6.29,1.01,1.55-2.14,2.68-3.18,3.82-8.8,9.52-7.24,20.8-2.06,31.74Z"/>
  <path class="st6" d="M537.48,377.11c-6.15-1.77-12.77-2.18-19.13-2.08-1.32.02-2.72.72-4.18.75-3.51.07-26.67-12.55-31.45-15.27-1.83-1.04-10.67-5.91-11.36-6.75-1.51-1.82-.44-10.19-.67-13.26-1.25-16.74-8.27-32.81-20.57-44.22l5.17,18.52c2.63,10.36,5,20.88,4.92,31.65-10.13-7.78-25.1-18.57-30.75-30.2-2.2-4.53-10.56-24.81-11.01-28.76s2.24-14.71,2.77-19.45c.36-3.17.26-6.85.71-10.1,24.91,6.19,50.02,14.01,67.55,33.78,13.2,14.9,20.07,34.31,21.92,54.02,4.32,2,28.1,28.84,26.1,31.37Z"/>
  <path class="st2" d="M206.07,875.38c-9.32-1.75-20.16-.94-27.78,5.29-1.4,1.14-3.2,2.36-2.84,4.46,10.96-1.47,22.17-4.48,32.51,1.25,8.25,4.58,9.67,14.45,9.25,23.14l-4.58-8.3c-12.75-13.89-30.58-6.13-32.92,11.52l-.42,8.61c-9.07-4.57-13.05-14.88-14.63-24.38-5.82,10.2-10.95,22.33-22.97,26.49-.06-2.65,1.4-5.37,1.65-8.1,1.5-16.42-13.22-29.42-28.11-19.09.16-4.68,4.83-9.01,9.14-11.06,8.95-4.27,17.99-2.91,27.41-1.48-1.88-4.88-9.47-8.41-14.34-8.98-14.19-1.66-28.76,5.32-32.09,19.99-.63,2.75-.74,10.69-1.59,11.65s-12.87,6.29-14.77,6.82c-3.75,1.04-7.35.89-11,1.88,1.57-4.43,3.86-8.79,4.16-13.6.71-11.32-6.84-19.57-16.71-23.68,12.6-10.41,27.66-5.11,41.08.35,1.18-1.52-4.41-6.98-5.55-8.01,7.25-4.2,12.77-10.53,19.09-15.63,25.91,8.05,53.62,11.66,80.69,8.38,1.63.51,5.84,12.01,5.34,12.47Z"/>
  <path class="st5" d="M27.83,708.84c41.24-6.95,78.61-31.86,108.61-59.94-1.89,12.3-4.02,24.54-5.2,36.95-27.21,24.27-69.98,55.5-103.4,22.99Z"/>
  <path class="st13" d="M130.88,699.77v14.98l-8.19,20.56c-12.96,5.36-30.05,8.82-43.81,4.97-.94-.26-1.92.44-1.62-1.13l53.62-39.38Z"/>
  <path class="st1" d="M69.49,910.81c-9.92-.85-18.12,3.68-26.34,8.48-.94-11.27,2.46-22.79,11.46-29.98,4.82-3.85,8.14-3.63,12.84.42,6.39,5.51,5.7,14.14,2.03,21.08Z"/>
  <path class="st12" d="M497.8,896.29c-.26-.17-1.92-5.19-2.03-5.98-.74-5.23.52-11.85,4.44-15.64,5.15-4.98,14.06,1.52,17.79,5.93,5.1,6.03,7.4,14.14,6.94,21.97-4.01-1.76-11.39-6.27-15.66-6.27-1.75,0-11.01.32-11.49,0Z"/>
  <path class="st1" d="M462.29,922.07l-10.67-6.39c-6.22-4.15-13.77.51-15.03-8.65-.87-6.32,1.12-12.7,6.67-16.2,3.09-1.95,4.27-1.62,7.46-.03,10.19,5.07,13.83,20.84,11.57,31.27Z"/>
  <path class="st12" d="M117.63,935.31c-.32.27-.97.16-1.43-.42-6.46-8.32-4.74-31.87,8.37-33.41,8.17-.96,10.48,10.34,8.2,16.58-1.11,3.04-9.81,9.79-12.7,13.07-.99,1.12-2.26,4.03-2.44,4.18Z"/>
  <path class="st12" d="M196.13,903.4c15.52-3.48,14.63,26.7,5.42,33.3-.55,0-3.97-5.3-4.87-6.27-4.5-4.88-7.56-5.08-7.83-13.08-.15-4.43,2.31-12.84,7.27-13.95Z"/>
  <path class="st0" d="M383.61,99.05c-5.04,6.11-6.38,14.89-3.48,22.29l-16.61-6.36c-1.42-2.22,2.71-14.28,5.07-15.98,2.6-1.87,11.55-.05,15.02.06Z"/>
  <path class="st3" d="M405.89,135.98l-6.3-3.88c4.73-7.88,6.09-15.8,4.01-24.83-.71-3.08-2.06-5.41-3.27-8.22,5.93.46,7.15,3.33,8.55,8.51,2.71,10.04.73,18.99-2.99,28.42Z"/>
  <path class="st9" d="M412.85,268.39l-9.73-22.67,8.69-10.79c2.2,11.12,1.55,22.22,1.04,33.45Z"/>
  <path class="st7" d="M396.65,106.13c5.46-.86,7.47,9.06,1.16,9.65-5.89.55-7.22-8.69-1.16-9.65Z"/>
  <path class="st4" d="M389.87,234.94c-.33.43-7.87-5.69-8.57-6.4-.6-.61-1.53-.59-1.17-1.96,7.39-2.53,8.44,2.18,9.74,8.36Z"/>
  <path d="M220.69,97.65c-3.93.92-7.96.93-11.97,1.6-2.23.37-4.56,1.62-6.49,1.88-.96.13-1.33.01-1.02-1.03.41-1.38,2.89-5.28,3.88-6.57,12.21-15.94,40.41-10.22,57.7-9.79,16.5.41,36.57,2,50.84-7,2.99,5.07,1.86,10.95-.9,15.82-.92,1.62-4.19,4.83-4.33,6.17s3.33,8.26,3.89,10.74c5.09,22.86-10.82,46.03-33.23,51.13-37.09,8.45-73.26-25.67-58.37-62.95Z"/>
  <path d="M330.01,95.56c3.42-11.84,2.62-23.73-2.79-34.84,14.3,6.18,18.11,27.48,2.79,34.84Z"/>
  <path d="M356.46,157.59c-5.64.86-15.34-2.35-14.62-9.35.12-1.21,1.39-3.33,2.38-3.94,5.87-3.55,13.06,8.01,12.23,13.28Z"/>
  <path class="st14" d="M268.73,101.14c-12.66,12.72,1.04,45.3,19.97,37.06,10.74-4.68,11.77-21.46,7.72-30.98-.96-2.27-2.79-3.77-3.32-6.08,1.47.3,5.18-.5,6.15.11.37.23,3.32,6.91,3.63,7.86,6.04,18.81-8.2,40.55-27.61,42.82-31.26,3.65-58.09-22.84-43.33-53.47l36.79,2.68Z"/>
  <path class="st8" d="M288.74,107.53c7.52-1.53,8.96,10.29,1.75,10.9-6.7.57-7.87-9.65-1.75-10.9Z"/>
</svg>