<?xml version="1.0" encoding="UTF-8"?>
<svg id="Layer_1" xmlns="http://www.w3.org/2000/svg" version="1.1" viewBox="0 0 508.48 958.39">
  <!-- Generator: Adobe Illustrator 29.6.0, SVG Export Plug-In . SVG Version: 2.1.1 Build 207)  -->
  <defs>
    <style>
 
      .st4 {
        fill: #797979;
      }

      .st5 {
        fill: #262626;
      }

      .st6 {
        fill: #eea319;
      }

      .st7 {
        fill: #a1c258;
      }

      .st8 {
        fill: #efa319;
      }

      .st9 {
        fill: #fbfbfb;
      }

      .st10 {
        fill: #abcb5e;
      }

      .st11 {
        fill: #a2c358;
      }
    </style>
  </defs>
  <path d="M405.46,61.04c3.07,2.5,10.3,4.79,14.35,7.6,14.83,10.28,21.65,26.41,19.38,44.36-.83,6.54-6.82,13.04-5.42,18.88.21.87,5.16.95,4.08,6.22-.75,3.69-4.64,2.5-5.51,3.74-.46.65-2.79,10.12-3.58,12.29-.68,1.89-3.27,5.67-3.27,7.13,0,1.66,2.52,6.4,2.76,9.73.35,4.93-2.33,11.07-1.97,13.81.27,2.03,3.03,7.27,3.84,10.11,4.69,16.6,2.41,35.22-3.98,51.01,16.35,7.84,30.77,20.4,40.68,35.61,23.59,36.22,21.06,83.11,28.28,124.34-.37,5.51-7.43,6.26-11.79,7.37.3,7.26,1.54,14.62,2.02,21.9.33,5.08-.61,11.08.07,15.96.93,6.77,6.27,18.02,7.97,26.17,9.1,43.65-1.75,75.61-3.85,117.46-.77,15.29,5.88,34.45,7.57,50.26,3.37,31.67-6.34,71.82-34.36,90.18-11.46,7.51-34.09,16.25-35.19-4.9-16.74,7.64-28.84-4.13-20.18-20.9-3.17-.25-4.49-3.43-6.96-4.89-.4,9.81-3.72,19.34-4.79,29.01-.33,2.97.08,5.99-.1,8.96-1.98,33.54-.84,67.75,3.51,101.06.05,4.17-3.86,4.05-6.27,6.27,7.91,5.73,18.37,11.81,28.27,12.81,18.13,1.83,32.83-9.74,51.3,1.62,4.36,2.68,6.91,7.49,9.57,9.24,1.36.89,3.83,1.12,5.57,2.09,14.42,8.09,22.44,22.23,20.85,39.05-.37,3.89-.52,6.9-4.89,5.6-7.16-2.14-11-7.5-20.49-8.05-7.08-.41-4.9.82-9.2,3.39-5.7,3.41-11.8,3.94-18.33,3.61,1.04,3.89,1.03,9.33.52,13.4-.29,2.27-2.94,11.83-5.62,11.58-.99-.09-10.08-7.89-12.36-9.25-10.31-6.17-8.74-1.92-18.37-1.08-29.18,2.55-57.48-20.11-86.37-23.01-14.06-1.41-37.17,1.51-46.97-10.83-9.27-11.67-2.22-30,4.84-41.12.82-1.3,3.25-3.6,3.49-4.17.53-1.24-.53-.91-.96-1.1-5.03-2.23-7.68-2.93-8.11-9.32-.55-8.21,1.87-19.9,2.14-28.57.62-19.38-1.53-39.09-.75-58.6.51-12.78,4.96-30.93,4.19-42.47-.3-4.44-2.21-10.99-3.24-15.56-4.98-22.01-12.27-43.51-16.96-65.6l-9.29-.08c-7.52,23.5-14.29,47.24-21.13,70.96-1.53,5.31-4.23,10.91-5.43,16.16-2.6,11.39-2.8,25.23-4.7,37.11-4.14,25.95-10.67,51.2-13.72,77.56-.61,5.25.14,16.65-2.46,20.53-1.87,2.78-8.33,4.27-11.5,5.3-.8,4.51,4.62,21.31,7.08,25.66,2.45,4.32,8.18,7.29,11.19,13.19,6.55,12.89,2.95,19.97-1.04,31.97-2.69,8.1-3.4,14.71-10.3,21.05-7.96,7.33-7.82,1.36-11.61-4.26-5.8-8.61-6.04-4.74-14.95-5.95-4.41-.6-11.43-3.89-14.79-6.8-1.16-1.01-4.13-5.68-5.23-4.86-1.85,5.46-8.66,10.37-14.09,12.04-8.37,2.58-8.05-.64-14.83,6.76-6.44,7.04-7.43,13.79-16.71,2.81-5.3-6.27-7.56-14.26-8.35-22.32-9.31,6.01-21.32,11.02-32.64,9.69-3.04-.36-7.87-3.01-10.34-2.6-1.97.33-6.13,3.41-7.81,4.78-5.34,4.35-8.56,13.06-13.02,2.54-5.39-12.7-2.73-26.83,5.01-37.74.99-1.4,2.91-2.46,3.76-3.9,1.67-2.83,2.08-6.2,4.42-9.52,4.69-6.66,13.95-11.57,22.06-12.06s8.73,2.79,16.33-3.17c3.45-2.71,7.47-7.37,9.82-11.07,1.74-2.75,6.21-11.38,6.68-14.26.25-1.54-4.18-2.71-5.53-3.64-2.18-1.5-4.19-3.65-4-6.5,6.14-29.94,8.27-60.55,11.19-90.95-2.11.3-3.63,1.45-5.92,1.45s-4.46-1.59-6.11-1.33-5.94,4.76-7.93,6.03c-7.07,4.52-18.2,7.99-26.14,4.11-4.28-2.09-4.1-5.6-4.74-6.07-.53-.39-9.82,2.8-12.84,2.83-8.93.1-18.08-6.28-16.37-16.08-10.13,1.26-19.57-3.4-18.04-14.92,1.2-9.07,13.56-15.84,17-24.1,3.74-8.99.77-17.81.35-26.84-.82-17.52,2.32-34.72,6.91-51.51-12.61-43.77-33.51-90.09-30.58-136.64.33-5.23,2.61-12.23,2.7-16.8.08-4.02-2.13-11.46-2.61-16.06-1.54-14.76-2.52-29.73-.06-44.45-.12-.88-10.7-1.41-10.52-8.38,4.19-35.11,5.03-71.69,17.61-105.09,12.36-32.82,32.25-49.13,63.41-63.37,9.05-4.13,18.79-7.07,27.6-11.4l-.34-1.73c-8.24,2.34-18.47,4.32-27.06,3.41-3.03-.32-12-2.45-11.61-6.5.13-1.38,15.31-17.78,17.73-21.35,12.41-18.34,17.16-44.24,23.9-65.28,6.13-19.12,12.94-38.25,23.15-55.59.24-1.52-.2-.82-1.03-1.01-8.62-2.01-14.72-4.73-21.56-10.49-2.61-2.2-14.13-14.46-11.91-17.44,1.35-1.81,9.45.59,11.9.73,8.42.48,16.47-.61,24.7-2.09.33-1.34-.49-1.34-1.17-1.96-7.86-7.16-15.64-14.84-19.55-25.03-7.47-19.48,4.71-10.48,14.09-7.14,52.02,18.51,86.21-6.68,135.79-11.16,51.68-4.67,98.3,16.57,133.68,52.95,1.75,1.8,4.39,6.05,6.12,7.46Z"/>
  <path d="M417.78,46.62c1.18-6.21,7.85-12.77,13.3-15.6,4.17-2.16,15.67-6.09,18.2-.24,3.47,8.01-12.67,9.32-17.42,10.78s-9.28,3.68-14.09,5.06Z"/>
  <path class="#000" d="M397.59,25.37c.75-4.82,8.6-15.96,14.09-12.9,1.12.62,1.34,2.73,1.27,3.83-.23,3.88-6.84,8.45-9.45,11.5-2.14,2.49-3.43,5.76-5.91,7.67.34-3.14-.47-7.09,0-10.1Z"/>
  <path class="#000" d="M431.01,64.74c.65-3.98,8.81-5.03,12.15-4.88,4.18.18,12.41,2.59,11.52,7.99-.98,5.94-11.53-.12-14.79-1.19-2.78-.91-5.96-1.66-8.88-1.91Z"/>
  <path class="#000" d="M111.42,233.4c6.51,20.38,24.51,38.35,44.57,45.29l-1.04-12.54c12.86,16.5,31.49,29.57,51.87,34.84-.98-4.71-2.62-9.87-2.44-14.63,14.6,16.65,36.02,29.12,58.14,32.05,1.02-.96-6.15-14.78-5.22-17.41,18.18,12.1,39,20.39,55.02,35.53,1.65.31.83-.75,1.05-1.71,1.54-6.84.49-14.35,0-21.28.5-.69,9.99,8.83,10.79,9.75,1.66,1.9,7.63,11.07,9.06,11.21.97.1,1.39-.29,2.11-.72,2.31-1.37,8.75-9.14,10.64-11.65,6.02-8.03,11.19-17.77,14.05-27.41,4.52,4.88,4.71,12.27,7.3,18.11,14.54-13.24,22.8-33.45,24.03-52.96,3.21,3.24,4.45,9.36,5.39,13.76.49,2.31-.67,5.13,2.01,6.35,10.32-5.3,17.96-15.79,23.59-25.7,1.33.03,15.59,9.93,17.68,11.57,41.78,32.84,36.49,89.67,44.67,137.16-21.49,7.55-45.07,8.99-67.59,5.99,12.24-29.52,25.43-63.43,17.43-95.87-.29-1.18.69-2.03-1.41-1.69-1.62,34.18-12.24,67.19-26.34,98.03-7.7,16.84-22.87,39.4-25.85,57.06-.3,1.8.31.74,1,.3,3.43-2.24,5.97-5.38,8.71-8.35-2.93,26.83-1.49,54.12,2.68,80.71-23.42,11.72-50.77,17.68-76.83,20.33-59.65,6.07-121.09-1.17-178.51-17.49-.78-16.41-4.78-32.27-7.75-48.34,7.66-24.68,14.43-49.82,15.3-75.87,12.23-4.08,8.16-7.84,8.36-17.57.5-24.1,5.35-48.71-.58-72.53-3.31-13.31-9.82-24.57-19.24-34.4-.53-.11-.43.65-.33,1.03,2.08,8.07,6.58,16.69,8.84,25.3,6.77,25.79,3.53,45.11,2.26,70.86-.14,2.93.71,17.15-.65,18.17-34.81,11.35-74.24,8.59-109.48.13-3.75-.9-21.58-5.49-23.53-7.11-.46-.39-.7-.77-.7-1.39,4.77-45.34,3.93-103.56,40.72-136.27,16.24-14.44,39.92-23.66,60.23-30.64Z"/>
  <path class="st5" d="M288.97,570.7l-8.71,48.77c8.68-11.2,11.87-25.53,13.57-39.38.25-1.99-.32-8.61,1.36-9.79,1.48-1.04,12.44.2,15.36-1.01-.01,7.04-1.29,14.07-2.31,21.04l-5.01,21.47c7.07-6.76,10.51-18.24,11.98-27.73.4-2.55.98-14.88,1.72-15.36,22.94-2.62,45.93-6.88,67.41-15.45,2.2,18.38,6.6,36.46,8.96,54.8,3.49,27.14,2.83,53.52.1,80.74-1.86,18.52-5.96,36.52-6.97,55.05-1.51,27.64-1.57,59.54,1.41,87.11.39,3.62,1.39,7.25,2.09,10.8-25.36,9.64-52.05,11.91-78.93,8.27l-1.04-1.05c.28-10.43.33-20.86.57-31.29.43-18.69.06-37.71.7-56.45.76-22.37,5.02-38.63-.02-61.25-5.19-23.26-13.13-46.51-18.62-69.77,7.18-3.06,14.94-5.05,21.93-8.56,6.18-3.1,14.29-8.67,19.65-13.09.3-.24,2.04-1.32,1.11-1.68-18.6,8.31-39.61,15.02-59.96,17.34-4.46.51-17.34.25-19.95,1.63-.61.32-1.21.59-1.52,1.27-9.06,27.97-16.16,56.65-25.6,84.49-3.58,10.57-9.97,21.07-9.94,32.57,2.05-2,4.22-4.2,5.23-6.96,1.11-.19.73.97.68,1.72-1.77,24.28-10.81,52.62-14.51,77.47-1.7,11.37-2.93,22.85-3.65,34.33-19.44,5.47-40.12,5.22-59.95,1.96-6.14-1.01-27.59-5.78-31.45-9.63-.73-.73-1.39-1.01-1.17-2.32,1.89-10.2,3.58-20.49,4.83-30.79,2.46-20.44,2.89-42.36,5.84-62.45.62-4.22,7.45-10.44,9.94-15.14,8.78-16.58,13.34-44.51,12.18-63.13-1.2-19.35-10.11-38.55-11.16-57.82-.55-10.15,1.4-20.55,2.07-30.66.66-9.85.79-19.76,1.41-29.61,48.4,15.13,99.63,20.59,150.38,19.52Z"/>
  <path class="#000" d="M429.62,111.44c-15.69-23.43-49.74-14.33-66.82-35.21-1.56-1.91-2.27-4.45-4.19-5.91-.54,9,3.51,17.17,8.92,24.05-7.02,5.72-12.64,13.35-15.39,22.1-.67,2.15-2.02,10.62-2.5,11.29-.33.46-10.28,1.23-4.97,7.04,1.49,1.63,3.28,1.03,4.19,2.42-23.71,3.11-33.36,29.64-50.12,44.27-15.87,13.85-39.06,19.4-52.21,36.25-9.34,11.96-10.56,30.34,5.07,37.4,11.56,5.22,24.02-.76,35.67-.16,18.81.97,35.49,7.18,55.66,5.59,13.71-1.08,26.78-8.77,40.04-11.83.62,15.98-2.26,33.42-12.52,45.99-1.9-6.93-6.78-15.44-12.54-19.86-.7-.54-.88-1.35-2.09-1.04-.54,17.98-9.42,34.93-21.24,48.07-9.79-12.27-21.92-20.94-35.51-28.56l4.9,18.79.68,6.99c-19.14-13.59-42.1-21.84-59.54-37.97-1.16-1.07-2.54-2.16-2.79-3.83-1.38.09-.64,3.42-.51,4.35,1.15,7.96,4.94,15.7,6.74,23.23.5,2.1-3.03.09-3.9-.28-21.61-9.31-38.35-25.09-50.02-45.41-2.32,9.45-.44,19.12.7,28.56-22.01-10.86-40.72-28.76-45.62-53.66-1.06.11-1.07,1.04-1.35,1.78-.52,1.4-2.82,10.78-2.82,11.81v15.68c-6.95-3.23-13.71-10.77-17.97-17.21-4.03-6.08-9.88-18.44-9.88-25.65v-14.29c-3.31,1.25-6.23,3.49-9.57,4.71-2.01.74-9.32,2.95-10.97,2.95h-10.44c-.32,0-1.84,1.95-1.73-.34,23.6-23.22,28.23-57.67,38.26-87.84,6.58-19.79,14.64-39.7,27.17-56.43-2.52-1.76-5.75-.73-8.61-1.13-9.74-1.34-19.24-4.7-26.2-11.76h15.67c3.15,0,10.69-2.88,13.83-4.28,1.11-.49,12.46-6.44,11.59-7.56-8.33-2.48-16.53-8.57-22.26-15.01-.67-.75-6.12-7.51-5.59-7.99,11.39,3.49,23.15,6.41,35.13,6.99,33.5,1.63,63.79-13.04,96.21-17.35,53.2-7.08,97.24,13.3,133.59,50.76,1.8,1.86,4.11,5.73,5.96,7.28,2.82,2.36,9.41,4.38,12.95,6.55,6.6,4.05,16.94,16.19,16.94,24.16v11.5Z"/>
  <path class="#000" d="M136.49,420.86c-1.04,5.23-.88,10.87-1.48,16.28-1.84,16.59-6.7,32.51-11.06,48.52-1.6.39-1.14-.31-1.59-.88-2.08-2.67-4.36-6.16-6.74-8.55-.81-.81-1.49-1.95-2.8-1.72,7.91,20.22,13.59,41.31,15.31,63.07,2.52,31.87-5.8,61.66.91,93.17,2.98,14.02,8.06,27.44,8.88,41.99.93,16.59-4.81,46.47-14.37,60.25-2.16,3.12-9.56,11.68-13.23,11.91-4.8.3.15-5.56,1.23-7.89,6.82-14.83,9.11-25.97,9.99-42.28.04-.65.6-2.83-.71-2.78-1.88.08-8.91,24.29-10.08,27.53-4.55,12.5-10.44,26.43-22.96,32.77-2.98,1.51-14.4,5.69-15.93,1.25s2.37-4.72,4.77-6.85c11.17-9.93,19.67-29.76,20.87-44.63.06-.76.52-2.6-.68-2.42-9.53,16.28-15.7,36.16-32.79,46.28-5.06,3-13.5,6.77-19,3.1-2.46-1.64-3.03-5.2-1.67-7.77.44-.82,9.57-6.02,11.69-7.81,9.97-8.45,16.39-21.23,15.3-34.5-4.82,5.96-7.63,13.35-12.24,19.45-6.06,8.02-20.18,19.31-30.96,15.78-8.03-2.63,3.87-12.48,5.97-15.01,14.06-16.96,10.85-19.52,10.06-40.05-.47-12.07.28-23.4,2.45-35.24.71-3.88,4.38-15.22,4.35-17.62s-2.18-8.81-2.95-11.63c-11.19-41.13-30.09-81.2-27.53-125.12.34-5.75,2.58-12.85,2.67-18.09.14-8.99-3.5-21.6-4.02-31.36-.45-8.49.26-16.98.69-25.43,8.81,1.73,17.48,4.38,26.31,6.06,30.17,5.74,61.26,6.68,91.35.21Z"/>
  <path class="#000" d="M474.17,415.98c.5,6.61,1.65,13.26,2.09,19.87.34,5.15-.53,10.92.08,15.94.88,7.23,6.19,18.56,7.94,26.9,3.81,18.19,4.26,37.61,3.12,56.1-1.51,24.53-9.07,52.63-5.34,76.45,3.02,19.32,8.18,35.77,6.73,55.96-1.74,24.38-18.25,62.69-45.21,67.64-11.6,2.13-8.95-5.82-3.2-11.56,8.33-8.33,14.55-10.5,18.29-23.51,3.23-11.24-.02-16.44.14-26.28.1-6.65,2.63-12.29,2.06-20.13-.21-2.81-.74-8.2-2.69-10.19-2.41,16.14-7.66,34.47-15.66,48.8-2.91,5.21-9.14,15.69-15.29,7.61s-3.15-23.91-3.88-33.75c-1.3-17.6-8.48-28.15-4.66-47.89,1-5.18,4.47-9.98,5.21-13.61,1.02-5.05-4.68-24.19-6.46-30.15-5.37-17.85-15.29-35.81-17.67-54.1-3.19-24.62-.5-49.69-.74-74.44,4.35-9.2,9.77-17.94,13.25-27.52,20.6,2.88,41.54,2.22,61.89-2.14Z"/>
  <path class="st4" d="M404.54,264.05c-.75.06-.98.36-1.38-.43-.72-1.43-1.09-4.39-1.96-6.31-17.15-37.85-73.34-44.92-109.46-37.53-7.98,1.63-24.16,6.77-29.22,13.27-1.88,2.41-3.9,7.48.88,6.5,4.53-.93,13.1-5.96,18.78-7.73,29.6-9.23,66.64-7.76,93.13,9.25.21.95-.72.75-1.39,1.03-15.77,6.48-29.71,10.37-46.99,9.41-13.03-.72-27.15-5.22-39.66-5.59-11.89-.35-41.98,9.97-38.5-12.7,2.84-18.53,42.54-33.22,56.93-46.15,11.56-10.39,27.87-38.73,42.29-40.59,16.57-2.14,53.7,21.63,64.24,34.3,16.53,19.85,12,54.19-1.39,74.6-1.96,2.99-4.87,5.41-6.3,8.69Z"/>
  <path class="st8" d="M469.99,871.76c1.14,1.37-2.78,2.21-3.71,2.89-8.92,6.53-11.84,30.24.23,34.74-.32,1.04-3.59,1.3-4.53,1.38-1.59.12-7.8.31-8.72-.31-.93-5.34-6.51-9.77-8.48-13.81-1.24-2.54-1.23-5.08-3.04-8.11-4.01-6.7-13.77-11.86-21.53-11.97-3.21-.04-8.58,1.98-10.87,1.8-2.41-.2-6.55-2.59-9.12-3.33-11.17-3.24-25.02-3.93-30.48,8.56,9.62-4.3,20.22-3.5,29.94.01.72.83-5.17,9.34-4.17,11.84,10.16-11.05,26.43-18.44,38.28-5.22l-5.03.52c-15.39,4.19-21.56,23.47-8.89,34.66-8.39,1.19-16.83-.98-24.9-3.29-21.34-6.1-38.94-17.41-61.79-19.69-9.5-.95-34.9.52-40.73-7.32-7.22-9.71,2.96-30.4,10.77-37.71,26.2,5.35,53.87,4.49,79.36-3.75,11.38,6.38,21.45,15.67,35.04,17.22,15.57,1.77,30.36-7.5,45.1-2.63.92.3,7.01,3.22,7.27,3.53Z"/>
  <path class="st6" d="M194.28,862.68c.21,7.46,2.98,14.51,4.87,21.6-10.7-1.38-23.3.45-26.45,12.55,16.83-11.91,43.34-5.79,43.85,17.42l-5.54-7.34c-17.8-14.86-36.91,9.48-28.57,26.85-12.78-2.29-17.24-16.61-18.81-27.87l-6.14,19.28c-1.24,1.76-2.55,4.23-4.03,5.73-.71.72-6.17,5.38-5.82,2.55.25-2.06,1.38-3.98,1.43-6.31.34-16.49-17.54-29.26-32.08-19.16,5.02-15.24,20.97-16.58,34.11-11.16-10.87-19.84-40.24-5.47-42.39,12.98-.9,7.7,1.99,8.13-5.01,13.8-5.75,4.66-14.66,7.6-21.93,8.72-1.82.28-.68-.33-.31-1.01,7.16-13.33,1.57-34.47-16-33.79,9.62-12.9,24.7-8.31,36.89-2.08l-4.87-7.66c11.63-5.67,19.98-20,23.68-32.07,23.39,7.66,48.65,10.26,73.1,6.97Z"/>
  <path class="st5" d="M288.97,630.62c3.93,19.93,10.4,39.25,15.27,58.94,3.19,12.9,6.19,22.53,5.62,36.18-.52,12.48-2.42,25.08-2.81,37.61-.61,19.67-.27,39.61-.7,59.24-.19,8.71.2,17.46.03,26.16-2.55-.74-11.36-1.96-11.84-4.52l2.13-29.25c.21-19.51-1.58-39.05-.75-58.6.54-12.79,4.39-28.4,4.26-40.39-.06-5.71-3.31-17.14-4.71-23.22-4.65-20.26-11.28-40.04-15.55-60.4l9.06-1.75Z"/>
  <path class="st5" d="M424.74,131.65l-66.85-2.79c1-11.91,8.03-26.55,20.44-29.77,15.5,5.46,35.88,2.88,43.52,20.46,1.65,3.79,2.8,7.93,2.89,12.1Z"/>
  <path class="st9" d="M414.19,679.3c-5.06,1.54-8.4,5.34-11.72,9.17l2.81-30.29c.49-19.67-.91-39.01-3.63-58.45-2.36-16.85-6.51-33.64-8.09-50.5l4.38-2.92c3.72,10.55,8.42,20.77,11.67,31.52,1.75,5.8,4.73,15.39,5.31,21.16s-5.65,17.89-6.22,26.38c-1.28,19.16,8.38,35.11,5.49,53.93Z"/>
  <path class="#000" d="M499.93,909.38c-5.22-2.49-10.54-4.87-16.37-5.56-11.46-1.36-18.21,2.62-16.35-13.6,1.48-12.93,11.45-10.44,19.98-5.36s12.59,15.05,12.74,24.52Z"/>
  <path class="#000" d="M125.34,949.1c-.81.68-3.22-2.73-3.77-3.53-4.82-7.01-5.26-14.92-3.71-23.13,2.51-13.31,22.03-12.1,23.44,2.7.9,9.51-6.94,11.55-12.12,17.68-1.11,1.31-3.55,6.04-3.83,6.28Z"/>
  <path class="#000" d="M204.74,945.61c-.49-.33-4.12-7.26-6.96-9.42-2.67-2.02-5.69-2.25-7.68-4.86-7.57-9.95,6.73-29.78,16.71-16.73,4.37,5.71,6.04,14.1,4.4,21.13-.36,1.53-4.45,11.27-6.47,9.88Z"/>
  <path class="#000" d="M50.86,937.95v-13.59c0-5.22,5.82-14.14,10.49-16.68,15.28-8.31,17.93,15.64,12.89,19.18-1.82,1.28-9.32,1.51-11.79,3.53l-11.59,7.57Z"/>
  <path class="#000" d="M430.84,899.05c5.53-.68,12.33,7.84,14.46,12.4,2.46,5.28,3.78,12.72,3.15,18.52-.51,4.63-2.56.49-4.58-1.06-5.95-4.59-11-4.65-16.45-7.93-8.51-5.14-4.92-20.91,3.42-21.92Z"/>
  <path class="st11" d="M422.66,140.71c-.47,5.27-2.56,10.81-5.21,15.34-.88,1.5-6.03,8.7-7.1,8.98s-1.29-.19-1.99-.6c-4.69-2.75-9.62-8.41-14.94-10.84,5.91-2,10.47-8,10.44-14.29l18.8,1.4Z"/>
  <path class="#000" d="M451.9,690.56c1.43,0,.52,2.73.37,3.51-2.3,12.32-18.26,26.27-29.94,29.27-12.58,3.23-11.61-6.27-5.28-12.95.42-.44,4.36-3.65,4.65-3.71,1.18-.23,4.6,2.97,6.91,3.34,11.92,1.9,19.37-10,23.29-19.46Z"/>
  <path class="#000" d="M414.99,688.47c-.34,3.74.84,7.29,2.13,10.74-3.36,1.74-5.96,6.19-9.01,1.38s5.69-13.51,6.88-12.12Z"/>
  <path class="st10" d="M378.79,137.92l.35,7.66c-6.6-3.81-13.92-6.14-21.25-8.01,0-1.26,19.13,1.07,20.9.35Z"/>
  <path d="M206.12,122.24c0-.12,1.77-2.4-.33-1.73-1.26.4-6.09,3.72-7.32,2.77,6.02-15.03,18.81-20.14,33.41-24.04,24.08-6.43,49.84-9.23,72.08-21.23l9.38-8.38c.69,5.91-.9,10.13-4.51,14.64-1.19,1.49-7.47,6.59-7.31,7.3,10.09,7.25,15.13,17.8,16.7,29.99.13,1-.16,4.37,0,4.52.37.34,5.33-.91,5.64,3.83.34,5.28-5.66,3.87-6.31,4.56-.27.29-.5,6.01-.93,7.78-10.9,44.72-85.27,51.89-105.31,11.04-1.07-2.18-3.06-10.03-3.44-10.5-.78-.99-4.4-.59-5.13-3.28-.89-3.27,3.38-4,3.38-4.72,0-4.15-.21-8.4,0-12.54Z"/>
  <path d="M231.53,187.4c-14.61-1.65-29.4-15.31-28.55-30.67,5.43,11.28,14.8,20.82,26.34,25.91l14.39,4.76c-3.9-.31-8.36.43-12.18,0Z"/>
  <path class="#000" d="M302.2,167.89c-9.07,11.19-23.77,24.33-38.73,25.69-4.94.45-9.29-.93-14.19-.62-.18-1.01,1.32-.9,2.07-1.05,12.51-2.54,22.79-4.75,33.38-12.59l17.46-11.43Z"/>
  <path d="M355.11,181.12c-5.85,1.51-21.62-5.99-14.66-12.93,5.19-5.17,14.98,7.6,14.66,12.93Z"/>
  <path class="st5" d="M214.47,124.33c.93-7.85,2.91-8.8,9.58-11.32l65.23-17.58c13.33,4.8,19.68,18.22,20.59,31.69l-95.4,7.31c.27-3.23-.37-6.95,0-10.1Z"/>
  <path class="st7" d="M309.16,135.84c-5.72,44.55-81.31,49.86-92.59,5.91l44.55-3.83c-.7,24.2,33.49,24.1,30.63-.7l17.41-1.38Z"/>
</svg>