<?xml version="1.0" encoding="UTF-8"?>
<svg id="Layer_1" xmlns="http://www.w3.org/2000/svg" version="1.1" viewBox="0 0 702.25 848.19">
  <!-- Generator: Adobe Illustrator 29.6.0, SVG Export Plug-In . SVG Version: 2.1.1 Build 207)  -->
  <defs>
    <style>
      .st0 {
        fill: #2b2b2b;
      }

      .st1 {
        fill: #2b2b2c;
      }

      .st2 {
        fill: #292929;
      }

      .st3 {
        fill: #2c2c2c;
      }

      .st4 {
        fill: #282929;
      }

      .st5 {
        fill: #020302;
      }

      .st6 {
        fill: #7baf2d;
      }

      .st7 {
        fill: #020202;
      }

      .st8 {
        fill: #e8a529;
      }

      .st9 {
        fill: #7aae2c;
      }

      .st10 {
        fill: #010302;
      }

      .st11 {
        fill: #747474;
      }

      .st12 {
        fill: #2a2a2a;
      }

      .st13 {
        fill: #da4c26;
      }

      .st14 {
        fill: #010202;
      }
    </style>
  </defs>
  <path class="st10" d="M687.46,240.95c.74,17.46-3.29,34.79-12.66,49.58-1.77,2.79-8.89,13.14-12.05,12.86-3.66-.33-4.34-7.14-5.51-9.47-.98-1.95-1.88,1.11-2.47,1.72-33.72,35.26-87.74,54.46-136.29,50.44-4.49,26.26-11.55,48.75-23.71,72.34-1.69,3.27-4.96,7.08-6.24,10.31-3.8,9.57-6.96,31.57-7.55,42.09-.33,5.87.97,14.94-.02,20.12-.55,2.87-4.53,4.04-5.38,5.41-1.14,1.86,1.98,19.67,2.74,23.15,5.54,25.54,13.71,48.15,14.91,75.02.56,12.45-1.56,22.66-2.22,34.53-.55,9.9.53,20.3.02,30.24-1.14,22.48-4.98,43.08-3.62,66.23.31,5.22,3.72,16.34.76,20.13l-5.73,4.25c7.79,11.04,27.01,15.49,39.89,14.08,11.07-1.21,16.47-8.09,29.37-1.32,3.41,1.79,6.24,6.32,8.44,7.39s5.94.87,8.46,1.61c13.21,3.86,18.62,18.89,17.43,31.55-1.42,15.09-11.58-.06-19.23-.23-.77-.02-8.49,5.5-11.25,6.44s-5.4,1.62-8.4,1.31c-.18,4.13-.42,18.68-6.11,18.66-2.78-.01-12.12-9.75-15.82-9.75-1.12,0-6.6,3.38-8.61,4.08-15.05,5.19-30.78.23-44.76-5.65-9.99-4.2-24.22-13.75-34.38-14.54-12.78-1.01-28.16,3.3-39.74-4.15-10.47-6.74-10.49-20.24-3.39-29.58,3.5-4.6,9.51-7.58,10.41-14.02-.16-.97-8.79-1.66-8.48-5.3-2.33-35.76-15.29-71.05-2.36-106.26-12.69-22.95-23.75-46.97-31-72.25l-10.96-.83c-4.38,10.79-9.18,21.46-14.25,31.94-7.38,15.28-20.88,35.93-26.15,50.83-2.88,8.16-3.39,22.74-5.76,32.37-5.87,23.84-17.15,46.1-21.79,70.3-1.73,3.51-7.51,3.43-10.94,3.81.28,2.78-.67,6.63.52,9.18.74,1.59,5.81,4.47,7.68,6.71,9.24,11.01,4.43,26.29-8.21,31.95-2.28,1.02-10.25,2.28-10.66,2.65-.38.34-2.7,7.42-3.87,9.45-3.7,6.43-11.01,13.19-18.53,14.56-3.38.62-9.17-.37-11.53.7-4.24,1.92-7.73,14.98-13.67,12.21-4.22-1.97-10.75-14.12-10.81-19.06-7.99,3.63-17.62,9.83-26.81,8.46-2.45-.37-7.46-3.51-8.64-3.33-5.01.75-11.92,13-17.11,8.22-3.08-2.83-4.83-14.2-4.28-18.39-5.44.35-10.8-.23-15.76-2.59-1.17-.56-3.62-2.93-4.02-2.96-4.86-.39-17.65,15.73-20.74,3.98-3.02-11.48,1.46-27.36,11.49-34.28,1.8-1.24,5.67-2.32,6.52-3.19,1.22-1.23,2.69-5.56,4.88-7.71,3.71-3.65,10.6-6.81,15.83-7.19,10.54-.76,17.11,5.48,28.58,3.4,13.29-2.41,22.65-10.69,28.58-22.48-3.56-3.04-11.04-4.35-10.73-9.96s4.84-17.58,6.21-24.07c3.23-15.24,4.37-30.88,7.91-46.05,2.97-12.7,7.83-24.7,12.46-36.82l-8.41,5.61c-20.65,12.84-47.38,19.81-70.71,9.84-3.11-1.33-13.12-6.51-9.04-10.46,1.52-1.47,12.91-4.68,16.19-6.11.89-.39,2.89-.69,2.91-1.75-19.17,2.96-41.16-11.39-50.22-27.85s3.92-10.18,13.86-10.28c2.55-.03,7.29-.54,10.01-.83,5.45-.56,10.88-1.95,16.28-2.79l-9.11-4.19c-16.57-9.16-26.22-26.68-23.99-45.82,1.04-8.93,11.27,1.34,15.81,3.64,39.99,20.3,89.38,3.53,116.37-29.74-.11-4.7,7.43-19.41,6.74-22.68-.12-.58-1.82-.96-2.55-1.94-3.28-4.4-1.13-6.84-1.07-11.11.16-12.47.35-25.66-1.68-37.95-.47-2.85-2.06-11.17-3.21-13.33s-12.78-10.48-15.66-13.12c-18.89-17.26-33.44-38.76-41.52-63.16-1.11-1.11-13.02-1.32-15.93-1.7-35.07-4.63-73.85-17.82-101.52-40.22-3.76-3.04-16.32-16.68-18.38-17.6s-6.49-.49-9.84-1.67c-17.93-6.33-18.05-34.26-16.06-49.78-8.02,9.53-15.8,18.97-17.29-1.05-3.2-43.02,16.75-82.58,29.72-122.14,10.58-32.26,17.35-83.26,46.64-104.45,14.4-10.42,24.02-8.19,40.24-4.39,19.38,4.54,48.37,12.25,41.71,38.5,15.52,2.44,23.02,18.19,18.74,32.77-7.51,25.61-38.84,44.12-64.79,43.49-.77,10.84-1.38,21.83.1,32.64,2.53,18.57,12.68,35.46,13.58,54.42,16.69-4.97,32.33-6.63,48.91-.35,1.61.61,5.22,3.17,6.12,3.2,1.2.03,7.47-2.49,10.17-2.76,1.8-.18,9.84.35,10.43-.5l2.07-13.97c-5.18,2.6-28.95,4.13-30.81-1.94-.2-.64-.24-1.31-.14-1.97.14-.94,10.35-12.01,12.12-14.56,12.21-17.62,15.75-37.01,22.24-56.9,5.47-16.75,11.06-33.67,20.33-48.74-7.68-2.88-15.5-7.46-20.01-14.51-9.46-14.79,1.19-10.25,10.31-9.59,3.91.28,7.95-.18,11.86,0-4.63-5.99-12.85-15.5-12.98-23.42-.13-7.5,9.41-1.59,13.55-.52,41.51,10.76,71.83-12.13,111.32-15.62,29.34-2.59,58.87,4.1,83.75,19.84,6.94,4.39,14.26,11.93,20.54,15.43,4.23,2.36,9.4,3.4,14,6.15,13.86,8.28,18.18,19.43,17.35,35.22-.41,7.83-1.05,17.95-3.29,25.49-.98,3.28-3.91,7.97-4.49,10.62-.68,3.12-.16,7.25-1.42,10.55,3.17,3.46,7.3,6.12,10.27,9.79,16.89,20.85,9.75,54.29-7.56,72.67,16.1-6.1,34.95-5.83,50.13,2.75,15.99-11.45,36.27-14.96,54.91-7.78-1.35-24.71,10.64-47.19,12.23-71.59.39-6.03-.85-12.56.73-18.33-14.88-1.56-28.88-6.4-40.3-16.19-18.24-15.63-31.68-49.71-.74-59.4-7.55-26.07,26.11-37.86,45.93-40.77,24.06-3.53,33.14,3.68,45.78,22.87,18.97,28.81,25.59,60.31,35.48,92.58,9.12,29.75,22.23,58.6,25.99,89.84,1.23,10.25,2.33,29.72-.82,39.27-3.5,10.63-8.92-1.2-12.74-4.47Z"/>
  <path class="st12" d="M277.36,250.31c8.81,9.35,18.7,18.11,30.2,24.12,5.29,2.76,15.57,6.88,21.42,6.68.72-.02,1.42-.32,1.59-1,.64-2.55-4.84-11.42-4.65-14.68,14.69,14.43,34.84,21.15,52.53,30.93,1.26-5.2-1.71-10.64-.73-15.82,10.59,7.95,20.31,16.35,28.05,27.2,14.65-9.44,26.77-23.75,29.16-41.59l5.64,10.53,1.55,4.57c2.11,1.54,8.72-10.65,9.47-12.46,2.45-5.87,3.77-13.93,4.18-20.28.61-9.48-2.93-15.49,5.03-22.31,15.32-13.1,44.63-14.01,60.82-1.78,14.45-12.48,34.07-16.99,52.14-9.71,13.82,5.57,22.17,17.73,31.66,28.41-.38-10.03-7.68-20.5-15.09-26.99-2.87-2.51-7.82-3.92-7.97-7.92s1.04-12.05,1.69-16.32c2.03-13.37,7.08-26.15,9.53-39.39s2.78-27.65,2.49-41.75c-23.89-1.07-48.35-12.7-56.85-36.32-3.42-9.5-2.66-20.22,7.93-24.47,12.07-4.84,34.34,6.17,25.5,19.75-5.73,8.8-17.74,4.54-25.51,1.48,3.56,8.37,13.02,12.41,21.74,9.86,1.59-.46,4.86-2.75,5.85-2.56.71.14,1.79,1.69,2.83,2.2,3.17,1.55,6.08,2.18,9.56,2.74,1.05.17,2.34-.66,3.23-.34,3.42,1.2,4.08,8.84,5.21,11.99,4.14,11.54,10.44,19.89,23.89,18.55,1.72-.17,6.03-.82,2.95-2.22-2.25-1.02-4.88-1.42-7.4-2.67-7.5-3.72-11.22-10.1-13.9-17.76,19.25,5.4,27.32-11.74,22.96-28.36-1.58-1.08-12.87,5.32-13.6,6.78-.62,1.25,1.97,1.73,2.57,1.74,2.34.02,4.43-1.46,6.78-1.38-.18,20.23-20.92,19.48-27.17,2.35-6.7-18.35,9.46-22.49,19.26-34-2.1-2.48-14.96,5.64-17.27,7.54-10.2,8.4-13.16,17.89-8.63,30.59-8.93-2.59-4.12-4.3-3.56-10.4.89-9.77-3.53-15.97-11.53-20.89,6.54-10.94,20.12-13,28.05-21.94-8.81,1.31-18.99,4.72-25.91,10.42-1.67,1.38-7.8,8.75-8.4,8.9-.56.14-7.03-1.38-7.43-1.69-1.2-.92-2.37-8.25-2.11-10.03,1.56-10.54,22.65-17.39,31.61-19.48,28.84-6.75,36.08.04,50.23,23.9,15.27,25.74,20.3,49.79,28.73,77.75,12.13,40.2,32.15,79.74,27.89,123.2-4.16-7.61-8.65-15.33-14.74-21.59.14,10.5,1.96,20.8,1.47,31.33-.79,17.02-5.42,32.41-15.16,46.36-1.91.19-1.16.03-1.41-1.07-.48-2.12-.6-4.29-1.64-6.29l-2.69-5.57c-5.38,8.49-14.44,16.35-22.38,22.59-32.13,25.24-74.74,39.73-115.76,36.4,4.26-13.72,5.62-28.1,5.04-42.44,18.52,4.02,39.52-.11,55.33-10.5,7.24-4.76,15.02-11.79,17.32-20.44-19.57,18.54-45.56,28.09-72.65,25.89-1.11-11.93-3.01-23.97-7.79-35.01-.91-2.09-2.09-5.17-3.72-6.71,1.97,9.51,3.53,19.41,4.3,29.14,2.22,27.76,2.04,66.8-24.96,82.95-23.15,13.85-51.06,7.45-75.04-.57,4.41,5.92,12.83,9.91,19.76,12.25,23.24,7.87,49.06,4.34,68.01-11.54-2.31,18.94-9.75,35.81-18.32,52.54-2.97,5.8-5.98,9.03-8.08,15.66-4.11,12.93-6.55,30.12-7.39,43.69-.2,3.23.74,14.19-.72,15.83-1.73,1.94-16.24,6.72-19.6,7.73-40.37,12.16-90.06,13.81-131.75,8.34-24.6-3.23-49.99-9.47-72.08-20.74.74-15.99,1.04-31.9-1.98-47.66-.72-3.77-1.94-10.53-3.47-13.8-1.84-3.95-16.72-14.15-21.16-18.41-12.53-12.01-30.4-36.61-35.26-53.24-.28-.97-.47-1.88-.34-2.9,7,.27,14.46-2.11,19.43-7.19-27.21,2.65-54.97-1.22-80.95-9.35-23.54-7.36-48.59-20.07-66.91-36.69-2.09-1.89-11.07-12.26-11.87-12.59-2.81-1.18-6.98.25-10.58-.93-5.36-1.76-8.44-9.08-9.64-14.1-4.2-17.46,1.26-36.9,2.97-54.42l-20.85,24.46c-1.76-27.49,6.26-53.92,15.09-79.51,5.29-15.34,12.17-30.25,16.75-45.84,8.74-29.74,15.82-76.98,43.47-95.38,10.58-7.04,18.9-4.53,30.58-2.07,10.36,2.19,36.81,8.63,37.21,21.79.03.93-1.2,8.46-1.5,8.79-.22.25-5.13,1.47-6.33,1.94-1.88.74-3.14,2.18-5.04,2.51-5.23-14.32-21.03-21.51-35.26-23.73,8.38,7.95,22.86,12.72,27.72,23.71.49,1.1,1.53,2.88,1.49,3.99-.08,1.95-4.02,6.77-4.57,10.24s.54,7.7-.72,10.79c-.99,2.45-5.91,6.13-8.81,5.94,6.69-19.55-11.23-34.91-27.71-41-1.17.72.24,1.59.72,2.16,11.12,13.2,30.7,21.77,17.05,42.22-7.48,11.2-22.78,6.12-21.73-7.69h5.76c-1.09-2.08-7.64-6.86-9.66-6.43-3.35.71-.98,13.89-.03,16.48,3.23,8.81,15.52,12.69,23.36,7.93-.64,13.6-10.24,20.98-21.57,26.26.76,1.71,9.16,1.22,10.98.91,4.21-.72,6.26-4.05,9.88-5.58-1.7,12.04-2.16,24.86-.63,36.95,3.06,24.17,18.42,49.63,12.66,74-1.78,7.53-5.42,14.44-9.87,20.7,12.54-4.71,16.15-19.57,18.67-31.32,19.29-5.36,37.34-7.68,54.66,4.4,8.32,5.8,12.64,13.37,19.1,20.47.83.91,6.26,7.03,5.27,2.65-2.36-10.38-9.23-18.97-16.41-26.4,12.36-2.78,24.82,2.72,35.96,7.56,18.87,8.18,23.57,15.54,38.52,27.67,4.45,3.61,9.21,6.96,14.01,10.09v-12.23Z"/>
  <path class="st2" d="M383.85,515.06l-3.11,23.16-5.17,19.29c10.58-11.06,12.02-27.8,11.88-42.44l16.54-1.45c-.62,10.92-1.51,21.63-5.02,32.04-.65,1.92-1.8,3.6-2.35,5.56-.28.99-1.31,1.39.53,1.25,3.97-3.28,5.93-7.97,7.36-12.79,1.63-5.44,2.93-13.58,3.08-19.22.06-2.16-1.89-5.07-.05-7.24,20.62-2.36,41.11-6.62,60.48-13.98.12,17.4,6.47,33.75,10.31,50.49,4.65,20.3,8.13,41.14,6.96,62.1-.67,12.08-1.83,23.88-2.18,35.95-.76,26.22-5.81,52.12-3.56,78.44.23,2.71,2.7,14.24,1.83,15.51-24.27,10.48-52.38,11.55-78.03,5.65-.37-27.64-10.52-54.34-6.35-82.11.33-2.2,2.2-11.39,3.03-12.8.72-1.22.84-.4,1.45.01,1.67,1.1,4.72,4.99,6.48,5.75.96.42,1.22-.16,1.08-1.08-.23-1.5-2.25-6.11-2.99-7.81-2.84-6.49-7.14-12.17-10.35-18.43-9.83-19.19-18.89-38.91-24.8-59.73,15.41-1.38,34.42-3.9,46.69-14.11.3-.25,2.11-1.36,1.15-1.73-25.17,8.22-51.87,8.14-78.05,9.37l4.36,3.28c-12.58,28.23-25.76,56.58-40.93,83.53-2.41,4.28-7.82,10.99-9.32,15.14-1.59,4.4,5.66-2.62,7.04-1.23-3.66,30.2-18.33,57.33-25.17,86.7-21.61,3.87-44.45,1.88-64.74-6.51-1.92-.79-9.92-4.03-10.83-5.01-.61-.66-.88-1.14-.69-2.07,7.67-23.25,8-48.12,14-71.69,2.23-8.74,5.97-16.89,8.49-25.32,4.54-15.2,3.37-29.9,4.92-45.44,3.47-34.79,15.08-68.26,23.66-101.89,41.48,17.89,87.45,22.17,132.38,20.86Z"/>
  <path class="st3" d="M228.08,53.9c5.56-.54,12.54-3.04,17.62-5.39-7.38-5.48-14.14-11.69-18.7-19.78,41,14,79.97-12.29,120.52-14.39,29.03-1.5,57.83,6.72,81.16,23.87,4.08,3,8.84,8.21,12.48,10.54,3.65,2.34,9.43,3.64,13.56,5.87,7.82,4.21,14.08,10.72,14.02,20.15-15.5-18.17-45.35-16.7-53.95,7.19.54.52,8.7-5.38,10.06-6.12,13.31-7.28,27.46-7.48,38.88,3.6,7.19,6.98,5.1,18.58,4.29,27.71l-4.65-8.65c-13.38-16.51-42.68-14.1-49.31,7.22-21.25-4.85-27.81,15.39-38.14,28.39-6.86,8.64-20.06,20.55-31.35,21.89-15.35,1.82-33.78-11.27-47.4-1.36-9.4,6.84-6.98,23.76-1.67,32.6,3.89,6.49,27.01,23.2,34.48,28.83,24.94,18.81,58.11,37.78,90.55,26.66,25.93-8.89,13.32-34.2,19.46-54.29,12.78,2.6,20.59,14.65,23.7,26.56l-7.87,5.1c.01-3.83.24-7.44-.71-11.2-.3-1.2.72-2.1-1.45-1.75.4,4.07-1.73,7.6-2.53,11.5-3.42,16.62.14,33.82-6.84,49.64l-6.48-10.41-6.45-6.13c-.63,13.8-6.19,27.24-15.14,37.75l-9.69,9.74c-10.78-16.23-29.15-24.42-42.46-38.13-.85.26-.21,1.56-.03,2.19,1.73,6.15,4.71,11.9,6,18.47.22,1.12.63,1.87-.93,1.65-2.11-.31-10.22-4.18-12.62-5.37-16.02-7.98-30.67-18.94-42.78-32.04-1.43,3.75,7.87,25.3,6.83,26.62-19.79-7.85-37.31-22.14-47.49-41-1.02-.21-.77.81-.94,1.55-1.19,5.2-1.05,10.45-1.56,15.71-10.8-8.03-17.33-21.05-17.63-34.53-6.76,3.11-13.66,5.15-21.22,4.32-7.12-.78-15.42-6.66-22.66-7.92l4.32-28.05c-9.03,4.15-18.7,7.07-28.77,6.47l9.65-13.73c20.23-34.28,20.52-77.83,45.74-109.66-8.9-2.48-18.14-5.04-24.45-12.23.54-1.18,1.67.36,1.8.36,3.42,0,7.5.32,10.79,0Z"/>
  <path class="st11" d="M467.31,204.26c-9.02-20.07-29.75-28.52-50.74-29.49-18.27-.84-36.49,5.41-54.68,6.46-9.19.53-32.64.65-39.57-5.74-3.46-3.19,4.19-2.93,3.96-6.48-7.07-2.05-18.73-.16-18.76,8.99,0,.67.62,4.5.78,4.68,1.09,1.18,4.19-5.44,6.01-4.99,5.35,5.71,12.82,8.63,18.78,13.64,4.23,3.55,7.32,8.23,11.16,11.86,17.13,16.15,46.11,28.94,69.82,23.04,13.35-3.32,9.86-11.14,10.86-21.51.23-2.39,3.27-18.45,4.24-19.16.15-.11,3.39.65,3.51.79.62.7-1.92,13.14-2.08,15.41-.89,12.9,3.4,27.88-12.25,33.79-26.87,10.15-58.23-6.7-79.36-22.06-9.91-7.21-24.39-17.2-33.21-25.07-6.63-5.92-12.66-22.29-3.93-28.35,9.53-6.61,26.24,2.8,36.97,3.21,18.68.73,36.1-16.04,46.3-30.02,9.99-13.7,11.06-24.35,31.81-20.04,11.87,2.46,47.01,22.28,54.64,31.7,13.12,16.2,9.05,44.41-4.29,59.34Z"/>
  <path class="st0" d="M142.1,641.7c6.56-1.99,13.15-5.82,19.19-9.24,14.71-8.33,34.02-18.97,41.24-34.65-.53-.51-3.96,2.33-4.66,2.89-16.6,13.39-40.43,27.19-62.56,21.51-12.24-3.14-22.59-11.75-29.19-22.24,17.73.87,35.33-2.69,52.17-7.91,15.86-4.92,31.69-11.84,43.51-23.75-22.24,8.93-48.73,22.86-71.45,7.77-10.14-6.74-15.83-17.34-17.04-29.36,4.98,2.35,9.73,5.1,14.93,7.01,38.74,14.25,76.79-.17,106.65-25.72-7.05,24.67-13.14,50.21-15.09,75.91-.62,8.21,2.05,11.55-3.62,18.68-15.43,19.43-48.92,29.17-72.25,20.48-.77-.28-1.73-.3-1.84-1.39Z"/>
  <path class="st8" d="M555.79,801.42c-.21,1.08-3.26,1.85-4.12,1.98-7.61,1.14-5.2-1.77-7.96-6.81-4.41-8.06-8.66-6.69-13.78-10.68-1.03-.81-2.19-3.86-3.34-5.29-5.21-6.44-13.39-8.16-21.33-7.07-5.92.81-11.51,5.52-17.46,5.63s-11.99-3.41-17.43-4.2c-10.53-1.52-1.48,4.99,2.42,6.93,5.17,2.57,11.01,4.18,16.82,3.69-.79,1.06-1.3,4.67.37,5.03.59.13,6.15-6.2,8.32-7.49,6.08-3.62,13.99-5.14,20.04-.73.63.46,2.7,2.33,2.92,2.84.57,1.34-.58.92-1.06,1.08-10.39,3.31-14.13,13.47-10.59,23.52l5.9,7.41c-14.22,3.29-27.53-.21-40.55-5.85s-25.55-15.08-39.64-15.75c-10.59-.51-20.91,2.93-31.53-1.57-5.82-2.46-7.07-6.18-6.21-12.37,1.41-10.18,14.26-14.15,14.33-24.88,20.91,3.68,42.65,2.2,62.88-4.2,8.31,13.74,30.85,20.84,46.11,19.3,10.43-1.05,21.44-11.08,31.29.37-12.38,6.55-9.85,26.21,3.61,29.15Z"/>
  <path class="st8" d="M266.57,761.12l2.17,23.74c1.9.21,1.14-.03,1.45-1.06.53-1.76.83-3.67,1.43-5.42,3.69.96,6.75,6.28,7.04,9.92.61,7.66-7.55,14.45-14.63,15.24-1.59.18-.8-.15-1.06-1.04-.2-.66-1.1-7.93-2.86-6.14-.34.34-1.98,7.79-2.55,9.32-3.74,9.95-9.12,21.35-21.19,22.33,5.97-13.9-5.82-32.37-21.58-25.17-.28-3.82,4.47-6.48,7.41-8.05,2.74-1.46,16.15-5.62,16.7-6.32,1.62-2.11-4.65-3.48-5.88-3.57-7.46-.51-20.94,6.22-24.03,13.23-1.85,4.19-.81,6.89-1.57,10.66-.14.71-4.44,11.21-4.84,11.7-.72.88-4.45,2.83-5.77,3.58-5.68,3.24-12.07,5.92-18.72,6.09,12.91-11.29,5.81-31.03-11.51-31.29,4.2-7.02,13.58-8.33,21.14-7.48,3.84.43,8.44,2.61,12.42,2.75s7.94-.89,3.37-4.15c-10.11-7.22-30.94-8.1-39.81,1.69-2.92,3.22-2.97,7.03-4.71,9.68-1.07,1.63-5.11,3.86-6.8,6.15-4.58,6.18-2.93,11.69-14.38,8.26.3-1.19,2.1-1.19,3.24-2.14,10.73-9.02,6.92-26.92-7.56-28.79,2.28-5.83,9.67-8.24,15.45-7.91,14.85.86,16.88,8.26,35.1,1.26,12.56-4.82,19.46-13.3,25.46-24.95,18.12,6.8,37.73,10.55,57.08,7.86Z"/>
  <path class="st3" d="M109.83,114.23c-2.54-1.58.5-7.97.98-9.96.85-3.5,2.66-14.55,5.39-16.19,1.38-.83,4.09-.15,5.95-.52,4-.8,7.44-5.05,10.24-7.75,5.4,9.68,21.42,7.44,26.4-1.66.69-1.25,2.49-6.3.21-6.25-.33,0-3.7,3.33-5.18,4.16-17.6,9.87-24.61-12.97-8.62-20.85,9.15-4.51,21.66-1.94,24.46,8.89,5.31,20.53-20.47,41.46-37.81,46.82-3.37,1.04-19.9,4.63-22.03,3.3Z"/>
  <path class="st13" d="M409.02,220.81c-23.44,1.6-46.61-8.43-62.59-25.17,22.58-6.87,52.52,2.99,62.59,25.17Z"/>
  <path class="st6" d="M461.54,125.12c-2.04-1.07-10.44-4.3-11.53-5.37-1.25-1.24-.42-3.39-.86-4.9-1.96-6.7-9.25-9.86-15.66-7.35-1.57.61-3.07,2.46-4.68,2.46-.46,0-6.08-2.3-7.28-2.77-.65-.25-1.36.33-.96-1.1,1.31-4.65,9.7-10.03,14.32-10.87,19.3-3.52,31.33,11.51,26.65,29.89Z"/>
  <path class="st2" d="M539.24,820.12c-3.08-2.66-6.47-5.08-10.3-6.6-7.54-3.02-14.59-1.12-13.44-12.46.91-8.89,10.37-10.55,17.08-6.29,8.41,5.35,8.12,16.6,6.65,25.36Z"/>
  <path class="st1" d="M112.61,817.24c-.58-10.98,5.74-27.38,19.08-25.91,7.38.81,10.35,8.45,6.71,14.66-3.07,5.23-9.1,3.79-14.48,5.67-3.91,1.37-7.43,4.15-11.31,5.59Z"/>
  <path class="st3" d="M216.92,839.54c-5.2-5.65-8.51-14.14-6.26-21.74,2.88-9.73,14.66-13.9,19.13-2.99,6,14.65-9.07,12.92-12.86,24.72Z"/>
  <path class="st3" d="M155.06,834.51c-.64-7.51-2.1-14.61,1.84-21.54,6.44-11.32,23.23-7.54,20.29,6.63-1.29,6.24-5.58,5.29-9.58,6.96-4.62,1.93-8.88,4.52-12.54,7.95Z"/>
  <path class="st4" d="M578.81,799.97c-3.64-.91-6.84-3.56-10.6-4.14-3.06-.47-6.25.22-9.13-.22-9.37-1.44-11.5-17.11.65-17.97,13.18-.93,19.38,10.61,19.09,22.33Z"/>
  <path class="st10" d="M394.63,359.67c-27.74,22.74-70.36,22.19-103.26,12.24-24.23-7.33-49.33-23.95-63.52-45.12-4.87-7.27-9.7-16.43-9.48-25.4l8.04,12.45c35.13,55.21,109.62,70.93,168.22,45.83Z"/>
  <path class="st5" d="M406.14,398.52l-9.13,6.33c-13.1,7.46-26.67,14.64-41.05,19.38-9.78,3.22-20.86,6.21-31.11,4.49.2-1.24,1.43-1.26,2.32-1.63,5.36-2.24,12.29-3.65,18-5.74,20.37-7.45,39.61-18.46,60.97-22.83Z"/>
  <path class="st5" d="M196.78,287.01c-19.06,16.78-60.01,12.02-75.52-7.58-.51-.65-2.72-3.4-2.17-3.93,6.97,2.75,13.12,6.99,20.15,9.7,18.4,7.07,38.71,7.3,57.54,1.82Z"/>
  <path class="st5" d="M398.23,491.32c1.58-7.09,4.32-14.01,4.94-21.31.48-5.64-.64-12.37.26-17.72.58-3.41,3.83-8.99,5.05-12.93,2.04-6.57,3.46-13.34,5.2-19.97,3.75,7.97,1.7,18.23-1.06,26.27-.88,2.57-3.2,5.57-3.57,7.94-1.06,6.74.63,13.88-.96,21.34-1.14,5.33-4.55,14.2-9.87,16.38Z"/>
  <path class="st7" d="M457.94,438.09c-4.87-7.04-9.39-13.99-15.81-19.8-6.77-6.12-14.87-9.44-21.4-14.58-.86-.68-1.96-.83-1.63-2.32,17.9-.31,39.33,18.19,38.84,36.69Z"/>
  <path class="st5" d="M395.35,460.39c1.39,1.36-6.48,5.45-7.42,5.89-13.1,6.15-34.71,8-45.82-2.66,3.21-.82,6.44.9,9.68,1.11,14.69.92,29.23-1.5,43.55-4.34Z"/>
  <path class="st5" d="M433.12,463.27c7.23-.67,14.25-3.73,20.86-6.48-.39,1.32-1.92,3.34-2.86,4.33-8.85,9.32-25.9,11.28-34.9,1.44,1.05-.45,2.09.71,2.52.71,4.56,0,9.98.41,14.39,0Z"/>
  <path class="st10" d="M369.45,134.48c.19,1.18-.97.67-1.78.71-20.75,1.09-48.58-1.93-69.79-3.61-.86-.07-3.85-.27-3.96-1.42l7.14-3.34c-6.61-28.93,21.35-53.25,49.16-42.55,15.97,6.14,24.6,25.09,20.2,41.44-.85,3.17-5.03,8.44-.97,8.76Z"/>
  <path class="st10" d="M365.85,78.35c-.55.59-11.5-8.04-13-8.93-23.15-13.67-39.82-8.98-58.93,7.14-.57.48-1.44,1.89-2.16.72,2.73-3.42,4.11-7.7,6.89-11.1,16.99-20.77,58.97-13.42,67.21,12.17Z"/>
  <path class="st14" d="M411.18,139.51c-3.95,1.18-15.44-1-12.6-7.17,3.35-7.29,13.88.62,12.6,7.17Z"/>
  <path class="st9" d="M362.91,130.09l-12.16-2.09c.89-2.66,2.9-3.89,3.42-7,2.5-14.86-16.73-21.21-24.16-9.06-2.89,4.72-2.37,10.06.6,14.62-7.61-1-15.27-.62-22.95-.79-7.15-52.12,71.24-47.78,55.25,4.33Z"/>
</svg>