<?xml version="1.0" encoding="UTF-8"?>
<svg id="Arvin" xmlns="http://www.w3.org/2000/svg" viewBox="0 0 1839.74 763.2">
  <defs>
    <style>
      .cls-1 {
        fill: #f6a728;
      }

      .cls-2 {
        fill: #fda037;
      }

      .cls-3 {
        fill: #ffa13a;
      }

      .cls-4 {
        fill: #030303;
      }

      .cls-5 {
        fill: #96311b;
      }

      .cls-6 {
        fill: #932f17;
      }

      .cls-7 {
        fill: #fbfae4;
      }

      .cls-8 {
        fill: #fff7e1;
      }

      .cls-9 {
        fill: #fda136;
      }

      .cls-10 {
        fill: #dc4d14;
      }

      .cls-11 {
        fill: #fda134;
      }

      .cls-12 {
        fill: #ffa037;
      }

      .cls-13 {
        fill: #fda034;
      }

      .cls-14 {
        fill: #fef7ed;
      }

      .cls-15 {
        fill: #cd4315;
      }

      .cls-16 {
        fill: #e25f0f;
      }

      .cls-17 {
        fill: #ee5613;
      }

      .cls-18 {
        fill: #c94420;
      }

      .cls-19 {
        fill: #c64116;
      }

      .cls-20 {
        fill: #ed5914;
      }

      .cls-21 {
        fill: #faf9e3;
      }

      .cls-22 {
        fill: #c54016;
      }

      .cls-23 {
        fill: #ed5713;
      }

      .cls-24 {
        fill: #ed5a0f;
      }
    </style>
  </defs>
  <g>
    <path class="cls-7" d="M999.48,477h-68.14l-10.34,54.04h-66.26l67.67-298.88h85.53l69.55,298.88h-67.67l-10.34-54.04ZM989.61,428.12l-24.44-126.41-24.44,126.41h48.87Z"/>
    <path class="cls-7" d="M1179,419.2h-11.75v111.85h-66.73V232.16h123.12c42.77,0,59.21,19.74,59.21,51.69v83.65c0,25.85-10.81,43.7-37.6,49.81l52.63,113.73h-71.9l-46.99-111.85ZM1167.25,371.73h36.19c8.93,0,12.22-2.82,12.22-11.28v-67.2c0-8.46-3.29-11.75-12.22-11.75h-36.19v90.23Z"/>
    <path class="cls-7" d="M1516.89,232.16l-65.79,298.88h-82.24l-66.26-298.88h70.02l37.12,221.81,37.6-221.81h69.55Z"/>
    <path class="cls-7" d="M1609.47,232.16v298.88h-66.73V232.16h66.73Z"/>
    <path class="cls-7" d="M1839.74,232.16v298.88h-60.15l-65.32-179.05v179.05h-61.09V232.16h60.62l64.38,178.58v-178.58h61.56Z"/>
  </g>
  <g>
    <polygon class="cls-4" points="799.79 590.55 757.13 483.52 745 453.07 777.99 466.13 743.33 402.12 743.32 402.1 692.26 307.83 748.03 328.55 650.62 161.12 648.14 156.17 691.22 133.22 614.53 88.94 598.39 79.62 591.09 75.41 399.9 0 208.7 75.41 207.07 76.35 191.94 85.08 108.57 133.22 151.89 156.3 149.47 160.59 51.76 328.55 107.53 307.83 56.46 402.12 56.42 402.16 21.8 466.13 54.8 453.07 42.67 483.51 0 590.55 98.21 550.26 84.94 595.58 163.43 602.9 168.43 606.29 193.37 623.19 399.9 763.2 571.47 646.89 631.36 606.29 636.36 602.9 714.85 595.58 701.59 550.26 799.79 590.55"/>
    <g>
      <polygon class="cls-12" points="315.72 215.26 298.23 205.94 278.43 195.39 260.88 186.03 250.69 180.6 241.51 175.72 160.09 132.34 219.6 97.99 275.29 117.57 315.72 215.26"/>
      <polygon class="cls-2" points="214.2 393.08 45.05 545.05 86.89 440.08 214.2 393.08"/>
      <polygon class="cls-15" points="280.62 437.42 285.02 446.57 243.02 463.81 214.2 393.08 307.72 402.66 280.62 437.42"/>
      <polygon class="cls-6" points="340.29 405.99 298.85 475.32 285.02 446.57 280.62 437.42 307.72 402.66 307.74 402.66 340.29 405.99"/>
      <polygon class="cls-15" points="198.9 596.74 237.41 496.75 155.5 577.05 117.45 573.51 136.79 507.41 243.02 463.81 285.02 446.57 298.85 475.32 198.9 596.74"/>
      <polygon class="cls-17" points="243.02 463.81 136.79 507.41 45.05 545.05 214.2 393.08 243.02 463.81"/>
      <polygon class="cls-5" points="313.51 525.83 276.1 649.06 198.9 596.74 298.85 475.32 313.51 525.83"/>
      <polygon class="cls-24" points="367.28 710.87 276.1 649.06 313.51 525.83 367.28 710.87"/>
      <polygon class="cls-1" points="357.82 382.15 282.68 365.38 343.22 339.75 357.82 382.15"/>
      <path class="cls-3" d="M387.25,286.81l-20.1,18.54-2.59-16.96,20.08-18.55-3.85-25.32-19.96,19.39-1.64,1.59-7.47,34.74-5.19,24.16-3.31,15.35,31.75,16.79,24.93,13.19v-.02l-12.64-82.9Z"/>
      <path class="cls-10" d="M220.84,261.22h-59.65l9.99-88.21,47.64,25.39.05.02c-4.78,8.82-7.5,18.95-7.5,29.71,0,12.16,3.48,23.51,9.47,33.1Z"/>
      <polygon class="cls-9" points="171.18 173 161.19 261.21 108.46 280.81 171.18 173"/>
      <path class="cls-22" d="M254.27,287.46l-3.99.6-112.8,16.96,23.71-43.81h59.65c5.07,8.12,11.98,14.97,20.11,20.03,4.15,2.57,8.6,4.68,13.31,6.22Z"/>
      <polygon class="cls-23" points="321.29 320.72 76.52 417.59 155.09 344.06 296.18 286.49 321.29 320.72"/>
      <path class="cls-21" d="M290.23,236.43c-3.03,5.98-9.23,10.09-16.38,10.09-10.14,0-18.4-8.26-18.4-18.4,0-3.26.86-6.3,2.35-8.96l-15.14-8.07c-2.76,5.05-4.33,10.86-4.33,17.03,0,19.62,15.9,35.53,35.53,35.53,13.71,0,25.6-7.78,31.52-19.15l-15.14-8.07Z"/>
      <path class="cls-13" d="M296.17,286.49l-141.09,57.56-78.57,73.53,60.96-112.56,112.8-16.96,3.99-.6c6.17,2.04,12.75,3.14,19.58,3.14s12.85-1.01,18.76-2.86c1.22-.38,2.38-.81,3.56-1.25Z"/>
      <polygon class="cls-18" points="329.16 257.18 321.29 320.72 296.18 286.49 296.19 286.48 329.16 257.18"/>
      <polygon class="cls-8" points="399.9 26.87 219.6 97.99 275.29 117.57 399.9 69.45 524.5 117.57 580.2 97.99 399.9 26.87"/>
      <polygon class="cls-12" points="484.07 215.26 501.56 205.94 521.36 195.39 538.91 186.03 549.1 180.6 558.28 175.72 639.7 132.34 580.2 97.99 524.5 117.57 484.07 215.26"/>
      <polygon class="cls-20" points="399.9 161.36 275.29 117.57 315.72 215.26 315.81 215.3 326 220.73 335.17 225.63 351.65 234.4 399.9 186.51 448.14 234.4 464.62 225.63 473.79 220.73 483.98 215.3 484.07 215.26 524.5 117.57 399.9 161.36"/>
      <polygon class="cls-11" points="399.9 69.45 275.29 117.57 399.9 161.36 524.5 117.57 399.9 69.45"/>
      <polygon class="cls-2" points="585.59 393.08 754.74 545.05 712.9 440.08 585.59 393.08"/>
      <polygon class="cls-15" points="519.17 437.42 514.77 446.57 556.78 463.81 585.59 393.08 492.07 402.66 519.17 437.42"/>
      <polygon class="cls-6" points="459.5 405.99 500.94 475.32 514.77 446.57 519.17 437.42 492.07 402.66 492.05 402.66 459.5 405.99"/>
      <polygon class="cls-15" points="600.89 596.74 562.38 496.75 644.29 577.05 682.34 573.51 663 507.41 556.78 463.81 514.77 446.57 500.94 475.32 600.89 596.74"/>
      <polygon class="cls-17" points="556.78 463.81 663 507.41 754.74 545.05 585.59 393.08 556.78 463.81"/>
      <polygon class="cls-5" points="486.28 525.83 523.69 649.06 600.89 596.74 500.94 475.32 486.28 525.83"/>
      <polygon class="cls-24" points="432.52 710.87 523.69 649.06 486.28 525.83 432.52 710.87"/>
      <polygon class="cls-19" points="485.78 524.2 450.47 441.77 399.9 545.05 349.32 441.77 314.01 524.2 313.51 525.83 367.28 710.87 399.9 732.99 432.52 710.87 486.28 525.83 485.78 524.2"/>
      <polygon class="cls-1" points="441.97 382.15 517.12 365.38 456.57 339.75 441.97 382.15"/>
      <path class="cls-3" d="M399.9,369.72v.02l24.93-13.19,31.75-16.79-3.31-15.35-5.19-24.16-7.47-34.74-1.64-1.59-19.96-19.39-3.85,25.32,20.08,18.55-2.59,16.96-20.1-18.54-12.64,82.9Z"/>
      <polygon class="cls-14" points="399.9 225.94 380.79 244.51 384.65 269.83 387.25 286.81 399.9 369.72 412.54 286.81 415.14 269.83 419 244.51 399.9 225.94"/>
      <polygon class="cls-16" points="399.9 369.73 343.22 339.75 357.82 382.15 399.9 473.09 441.97 382.15 456.57 339.75 399.9 369.73"/>
      <path class="cls-10" d="M578.95,261.22h59.65s-9.99-88.21-9.99-88.21l-47.64,25.39-.05.02c4.78,8.82,7.5,18.95,7.5,29.71,0,12.16-3.48,23.51-9.47,33.1Z"/>
      <polygon class="cls-9" points="628.61 173 638.6 261.21 691.33 280.81 628.61 173"/>
      <path class="cls-22" d="M545.53,287.46l3.99.6,112.8,16.96-23.71-43.81h-59.65c-5.07,8.12-11.98,14.97-20.11,20.03-4.15,2.57-8.6,4.68-13.31,6.22Z"/>
      <polygon class="cls-23" points="478.5 320.72 723.27 417.59 644.7 344.06 503.62 286.49 478.5 320.72"/>
      <path class="cls-21" d="M494.42,244.5c5.93,11.38,17.82,19.15,31.52,19.15,19.63,0,35.53-15.92,35.53-35.53,0-6.17-1.58-11.98-4.33-17.03l-15.14,8.07c1.49,2.66,2.35,5.71,2.35,8.96,0,10.14-8.26,18.4-18.4,18.4-7.14,0-13.35-4.11-16.38-10.09l-15.14,8.07Z"/>
      <path class="cls-13" d="M503.62,286.49l141.09,57.56,78.57,73.53-60.96-112.56-112.8-16.96-3.99-.6c-6.17,2.04-12.75,3.14-19.58,3.14-6.54,0-12.85-1.01-18.76-2.86-1.22-.38-2.38-.81-3.56-1.25Z"/>
      <polygon class="cls-18" points="470.64 257.18 478.5 320.72 503.62 286.49 503.6 286.48 470.64 257.18"/>
    </g>
  </g>
</svg>